<svg width="83" height="85" viewBox="0 0 83 85" fill="none" xmlns="http://www.w3.org/2000/svg">
<path d="M31.8421 79.2874C51.7279 84.6157 72.0877 72.274 77.5057 52.054C82.9236 31.8339 71.4624 10.9657 51.5766 5.63737C31.6908 0.308992 11.331 12.6507 5.91307 32.8708C0.495134 53.0908 11.9564 73.959 31.8421 79.2874Z" fill="#FFB423" stroke="#41325B" stroke-width="8.09022"/>
<path d="M67.4257 49.3554C63.4677 64.1267 48.7453 73.016 34.5422 69.2103C20.3391 65.4045 12.0338 50.345 15.9917 35.5738C19.9497 20.8026 34.6721 11.9133 48.8752 15.719C63.0782 19.5247 71.3836 34.5842 67.4257 49.3554Z" fill="#FFCF23"/>
<g clip-path="url(#clip0_2030_1595)">
<path d="M52.5547 39.8554L55.4904 28.9961L44.5821 31.919L36.6102 23.983L33.6743 34.8417L22.7661 37.7646L30.7387 45.701L27.8023 56.5599L38.7105 53.6371L46.6825 61.5731L49.6183 50.7143L60.5266 47.7915L52.5547 39.8554Z" fill="#FDB813"/>
<path d="M36.6102 23.983L33.6743 34.8417L22.7661 37.7646L41.6464 42.7783L36.6102 23.983Z" fill="#FFE384"/>
<path d="M55.4896 29.0015L44.5813 31.9243L36.6094 23.9883L41.6456 42.7836L55.4896 29.0015Z" fill="#FDB813"/>
<path d="M60.5273 47.7978L52.5554 39.8618L55.4911 29.0025L41.6471 42.7847L60.5273 47.7978Z" fill="#F1A327"/>
<path d="M46.6825 61.576L49.6184 50.7172L60.5267 47.7943L41.6465 42.7812L46.6825 61.576Z" fill="#EF7429"/>
<path d="M27.8051 56.5575L38.7134 53.6346L46.6853 61.5707L41.6493 42.7759L27.8051 56.5575Z" fill="#F1A327"/>
<path d="M22.7676 37.7695L30.74 45.7054L27.8038 56.5649L41.6479 42.7832L22.7676 37.7695Z" fill="#FDB813"/>
</g>
<path fill-rule="evenodd" clip-rule="evenodd" d="M69.4852 49.906C65.2434 65.7366 49.4078 75.3972 33.9931 71.2669C18.5785 67.1365 9.69474 50.8524 13.9366 35.0217C18.1784 19.1911 34.014 9.53052 49.4286 13.6609C64.8433 17.7912 73.727 34.0753 69.4852 49.906ZM34.5444 69.2095C48.7475 73.0152 63.4699 64.1259 67.4278 49.3547C71.3858 34.5835 63.0804 19.5239 48.8773 15.7182C34.6743 11.9125 19.9518 20.8018 15.9939 35.573C12.036 50.3442 20.3413 65.4038 34.5444 69.2095Z" fill="#DF8D12"/>
<path fill-rule="evenodd" clip-rule="evenodd" d="M61.4795 23.4984C58.5535 20.8908 55.0146 18.9201 51.0059 17.846C36.8028 14.0403 22.0804 22.9296 18.1224 37.7008C15.5684 47.2326 18.1209 56.8845 24.0694 63.5549C16.6286 56.9237 13.1517 46.173 15.9925 35.5709C19.9504 20.7996 34.6729 11.9103 48.8759 15.716C53.9138 17.0659 58.2097 19.8318 61.4795 23.4984Z" fill="#FFDD65"/>
<path fill-rule="evenodd" clip-rule="evenodd" d="M12.4626 32.2761C11.9117 32.0702 11.6319 31.4567 11.8378 30.9057C15.5138 21.0685 23.7459 13.4554 33.9698 10.6336C34.5368 10.4771 35.1232 10.8099 35.2797 11.3768C35.4362 11.9438 35.1034 12.5303 34.5365 12.6868C24.9758 15.3255 17.2717 22.4489 13.833 31.6513C13.6271 32.2022 13.0136 32.482 12.4626 32.2761Z" fill="#FFCF72"/>
<path fill-rule="evenodd" clip-rule="evenodd" d="M68.244 58.6022C68.7412 58.9164 68.8897 59.5741 68.5756 60.0714C66.0844 64.015 62.7813 67.3941 58.9008 69.9741C58.411 70.2998 57.75 70.1667 57.4243 69.6769C57.0987 69.1872 57.2317 68.5261 57.7215 68.2005C61.3527 65.7862 64.4439 62.6238 66.7748 58.9338C67.0889 58.4366 67.7467 58.2881 68.244 58.6022Z" fill="#FFCF72"/>
<path fill-rule="evenodd" clip-rule="evenodd" d="M24.1955 17.7907C24.1953 17.7908 24.1957 17.7905 24.1955 17.7907L23.6048 16.9045C24.1955 17.7907 24.1954 17.7908 24.1955 17.7907L24.1917 17.7932L24.1701 17.8079C24.1499 17.8217 24.1184 17.8435 24.0767 17.8729C23.9931 17.9318 23.8686 18.0212 23.7113 18.1392C23.3962 18.3755 22.9516 18.7248 22.4423 19.1703C21.418 20.0667 20.1607 21.3282 19.166 22.8201C18.8398 23.3095 18.1786 23.4417 17.6892 23.1155C17.1998 22.7892 17.0676 22.128 17.3938 21.6386C18.5291 19.9357 19.9342 18.5348 21.0398 17.5674C21.5955 17.0811 22.0827 16.6982 22.4333 16.4353C22.6087 16.3037 22.7504 16.2018 22.8499 16.1317C22.8997 16.0967 22.939 16.0695 22.9666 16.0506L22.9994 16.0283L23.009 16.0218L23.0121 16.0197L23.0132 16.019C23.0134 16.0189 23.014 16.0184 23.6048 16.9045L23.0132 16.019C23.5026 15.6927 24.1646 15.8244 24.4909 16.3138C24.817 16.803 24.6843 17.4642 24.1955 17.7907Z" fill="#FFE9AF"/>
<defs>
<clipPath id="clip0_2030_1595">
<rect width="33.8787" height="38.9245" fill="white" transform="translate(20.248 28.3672) rotate(-15)"/>
</clipPath>
</defs>
</svg>
