<svg width="1672" height="1238" viewBox="0 0 1672 1238" fill="none" xmlns="http://www.w3.org/2000/svg">
<path d="M1670.64 12.7065H28.0781V177.026C573.583 246.741 1125.3 245.909 1670.64 174.425V12.7065Z" fill="white" stroke="#D9DBC5" stroke-width="1.07992" stroke-miterlimit="10"/>
<g opacity="0.5" clip-path="url(#clip0_1214_573)">
<g opacity="0.15">
<path d="M866.036 20.2012L472.832 540.985C515.8 542.033 560.48 542.599 606.514 542.893L992.042 32.2959C951.355 26.8878 909.242 22.8423 866.036 20.2012Z" fill="white"/>
<path d="M1005.12 31.9111L624.977 542.766C640.19 542.829 655.545 542.872 671.041 542.893L1046.3 38.6232C1032.76 36.217 1019.04 33.9796 1005.14 31.9111H1005.12Z" fill="white"/>
<path d="M801.777 40.4277L427.082 539.424C432.712 539.625 438.364 539.805 444.062 539.986L818.667 41.1095C813.06 40.8488 807.43 40.6283 801.777 40.4277Z" fill="white"/>
</g>
</g>
<path d="M309.502 22.5795L292.259 17.3737L203.459 336.658L114.66 655.942L131.903 661.148L309.502 22.5795Z" fill="white" stroke="white" stroke-width="0.245438" stroke-miterlimit="10"/>
<path d="M1285.13 17.4876L1267.89 22.6934L1439.64 640.213L1456.88 635.007L1371.01 326.247L1285.13 17.4876Z" fill="white" stroke="white" stroke-width="0.245438" stroke-miterlimit="10"/>
<path d="M1285.13 17.4876L1267.89 22.6934L1439.64 640.213L1456.88 635.007L1371.01 326.247L1285.13 17.4876Z" fill="white" stroke="white" stroke-width="0.245438" stroke-miterlimit="10"/>
<path d="M28.9141 650.636V1029.66H1583.27V649.652C1066.89 587.575 545.23 587.883 28.9141 650.657V650.636Z" fill="white" stroke="white" stroke-width="0.245438" stroke-miterlimit="10"/>
<path d="M28.9141 667.749V1044.88H1593.09V663.051C1073.35 602.204 548.371 603.743 28.9141 667.749Z" fill="#353271"/>
<path d="M29.2305 666.882V1049.44H1585.17V662.116C1068.17 600.392 545.953 601.953 29.2305 666.882Z" fill="#EEDCBB"/>
<mask id="mask0_1214_573" style="mask-type:alpha" maskUnits="userSpaceOnUse" x="43" y="631" width="1557" height="433">
<path d="M43.5391 681.221V1063.78H1599.48V676.455C1082.48 614.731 560.261 616.292 43.5391 681.221Z" fill="#699215"/>
</mask>
<g mask="url(#mask0_1214_573)">
<g opacity="0.2">
<g clip-path="url(#clip1_1214_573)">
<path d="M967.072 812.762L938.271 806.304L929.491 804.609C923.184 803.767 918.281 798.421 918.281 792.006V763.421C918.281 756.671 919.588 749.878 926.078 749.403C926.575 749.371 927.061 749.328 927.547 749.23L969.146 741.109C970.744 740.796 972.418 740.796 973.962 741.282C978.897 742.837 981.316 747.978 981.316 753.809L981.597 800.397C981.597 806.553 977.083 811.726 971.154 812.881C969.804 813.14 968.401 813.065 967.061 812.773L967.072 812.762Z" fill="#3E5D50"/>
<path d="M965.409 801.586L953.066 799.966C950.085 799.966 947.645 797.525 947.645 794.544V781.013C947.645 778.032 950.085 775.592 953.066 775.592H965.409C968.39 775.592 970.831 778.032 970.831 781.013V796.175C970.831 799.156 968.39 801.596 965.409 801.596V801.586Z" fill="#ECCCAD"/>
<path d="M967.072 1100.53L938.271 1094.07L929.491 1092.38C923.184 1091.53 918.281 1086.19 918.281 1079.77V1051.19C918.281 1044.44 919.588 1037.65 926.078 1037.17C926.575 1037.14 927.061 1037.1 927.547 1037L969.146 1028.88C970.744 1028.56 972.418 1028.56 973.962 1029.05C978.897 1030.6 981.316 1035.75 981.316 1041.58L981.597 1088.16C981.597 1094.32 977.083 1099.49 971.154 1100.65C969.804 1100.91 968.401 1100.83 967.061 1100.54L967.072 1100.53Z" fill="#3E5D50"/>
<path d="M965.409 1089.35L953.066 1087.73C950.085 1087.73 947.645 1085.29 947.645 1082.31V1068.78C947.645 1065.8 950.085 1063.36 953.066 1063.36H965.409C968.39 1063.36 970.831 1065.8 970.831 1068.78V1083.94C970.831 1086.92 968.39 1089.36 965.409 1089.36V1089.35Z" fill="#ECCCAD"/>
<path d="M979.295 926.457L947.578 916.155C945.817 915.831 945.817 915.939 944.986 915.615C938.074 912.904 933.074 909.47 933.074 902.699V842.785C933.074 836.035 939.111 832.029 945.493 829.729C946.368 829.415 955.925 826.046 956.811 825.744L977.999 818.605C982.902 816.953 986.908 817.828 990.083 821.91C991.801 824.102 991.768 828.616 991.768 831.597L992.006 917.073C992.006 922.418 990.213 925.464 986.315 926.641C984.025 927.332 981.563 927.181 979.284 926.447L979.295 926.457Z" fill="#699215"/>
<path d="M981.131 866.932H964.382C962.988 866.932 961.844 865.787 961.844 864.394L962.557 834.523C962.557 833.13 963.701 831.985 965.094 831.985L981.617 827.19C983.01 827.19 984.155 828.335 984.155 829.728L983.669 864.394C983.669 865.787 982.524 866.932 981.131 866.932Z" fill="#EEDCBB"/>
<path d="M934.055 1031.14L963.601 1021.28C965.243 1020.97 965.243 1021.08 966.01 1020.77C972.446 1018.17 977.101 1014.88 977.101 1008.39V951.014C977.101 944.556 971.485 940.712 965.535 938.509C964.725 938.206 955.815 934.977 954.994 934.696L935.264 927.861C930.696 926.284 926.97 927.115 924.011 931.025C922.413 933.131 922.446 937.44 922.446 940.301L922.219 1022.16C922.219 1027.28 923.882 1030.19 927.521 1031.33C929.659 1032 931.949 1031.85 934.076 1031.13L934.055 1031.14Z" fill="#ABB768"/>
<path d="M955.265 974.027L967.436 969.708C968.516 969.708 969.402 968.757 969.402 967.591L969.639 947.04C969.639 945.874 968.754 944.923 967.674 944.923L954.887 940.928C953.807 940.928 952.922 941.878 952.922 943.044L953.3 971.9C953.3 973.066 954.185 974.017 955.265 974.017V974.027Z" fill="#EEDCBB"/>
<path d="M1058.14 631.853L1029.34 625.395L1020.56 623.7C1014.25 622.857 1009.35 617.512 1009.35 611.097V582.511C1009.35 575.762 1010.65 568.969 1017.14 568.494C1017.64 568.462 1018.13 568.418 1018.61 568.321L1060.21 560.2C1061.81 559.887 1063.48 559.887 1065.03 560.373C1069.96 561.928 1072.38 567.069 1072.38 572.9L1072.66 619.488C1072.66 625.644 1068.15 630.817 1062.22 631.972C1060.87 632.231 1059.47 632.156 1058.13 631.864L1058.14 631.853Z" fill="#3E5D50"/>
<path d="M1058.14 919.622L1029.34 913.164L1020.56 911.468C1014.25 910.626 1009.35 905.28 1009.35 898.866V870.28C1009.35 863.53 1010.65 856.738 1017.14 856.263C1017.64 856.23 1018.13 856.187 1018.61 856.09L1060.21 847.969C1061.81 847.656 1063.48 847.656 1065.03 848.142C1069.96 849.697 1072.38 854.837 1072.38 860.669L1072.66 907.257C1072.66 913.412 1068.15 918.585 1062.22 919.741C1060.87 920 1059.47 919.924 1058.13 919.633L1058.14 919.622Z" fill="#3E5D50"/>
<path d="M1056.48 908.445L1044.13 906.825C1041.15 906.825 1038.71 904.384 1038.71 901.404V887.872C1038.71 884.892 1041.15 882.451 1044.13 882.451H1056.48C1059.46 882.451 1061.9 884.892 1061.9 887.872V903.035C1061.9 906.015 1059.46 908.456 1056.48 908.456V908.445Z" fill="#ECCCAD"/>
<path d="M1070.37 745.548L1038.65 735.246C1036.89 734.922 1036.89 735.03 1036.06 734.706C1029.15 731.995 1024.15 728.561 1024.15 721.79V661.876C1024.15 655.126 1030.19 651.12 1036.57 648.819C1037.44 648.506 1047 645.137 1047.89 644.834L1069.07 637.696C1073.98 636.044 1077.98 636.919 1081.16 641.001C1082.87 643.193 1082.84 647.707 1082.84 650.688L1083.08 736.164C1083.08 741.509 1081.29 744.555 1077.39 745.732C1075.1 746.423 1072.64 746.272 1070.36 745.537L1070.37 745.548Z" fill="#699215"/>
<path d="M1072.21 686.022H1055.46C1054.06 686.022 1052.92 684.878 1052.92 683.485L1053.63 653.614C1053.63 652.221 1054.78 651.076 1056.17 651.076L1072.69 646.281C1074.08 646.281 1075.23 647.426 1075.23 648.819L1074.74 683.485C1074.74 684.878 1073.6 686.022 1072.21 686.022Z" fill="#EEDCBB"/>
<path d="M1025.13 850.236L1054.68 840.377C1056.32 840.064 1056.32 840.171 1057.08 839.858C1063.52 837.266 1068.17 833.973 1068.17 827.482V770.106C1068.17 763.648 1062.56 759.803 1056.61 757.6C1055.8 757.298 1046.89 754.069 1046.07 753.788L1026.34 746.952C1021.77 745.376 1018.04 746.207 1015.09 750.117C1013.49 752.222 1013.52 756.531 1013.52 759.393L1013.29 841.251C1013.29 846.37 1014.96 849.286 1018.6 850.42C1020.73 851.09 1023.02 850.938 1025.15 850.226L1025.13 850.236Z" fill="#ABB768"/>
<path d="M1046.34 793.119L1058.51 788.8C1059.59 788.8 1060.48 787.849 1060.48 786.683L1060.71 766.132C1060.71 764.966 1059.83 764.015 1058.75 764.015L1045.96 760.02C1044.88 760.02 1044 760.97 1044 762.136L1044.37 790.992C1044.37 792.158 1045.26 793.108 1046.34 793.108V793.119Z" fill="#EEDCBB"/>
<path d="M1036.88 1033.56L1068.6 1023.26C1070.36 1022.94 1070.36 1023.05 1071.19 1022.72C1078.1 1020.01 1083.1 1016.58 1083.1 1009.81V949.891C1083.1 943.142 1077.06 939.135 1070.68 936.835C1069.81 936.522 1060.25 933.152 1059.36 932.85L1038.17 925.712C1033.27 924.059 1029.27 924.934 1026.09 929.016C1024.37 931.209 1024.41 935.723 1024.41 938.703L1024.17 1024.18C1024.17 1029.52 1025.96 1032.57 1029.86 1033.75C1032.15 1034.44 1034.61 1034.29 1036.89 1033.55L1036.88 1033.56Z" fill="#699215"/>
<path d="M1035.04 974.038H1051.79C1053.19 974.038 1054.33 972.893 1054.33 971.5L1053.62 941.63C1053.62 940.236 1052.47 939.092 1051.08 939.092L1034.56 934.297C1033.16 934.297 1032.02 935.442 1032.02 936.835L1032.51 971.5C1032.51 972.893 1033.65 974.038 1035.04 974.038Z" fill="#EEDCBB"/>
<path d="M1065.91 1133.52L1036.36 1123.66C1034.72 1123.35 1034.72 1123.46 1033.95 1123.14C1027.51 1120.55 1022.86 1117.26 1022.86 1110.77V1053.39C1022.86 1046.93 1028.47 1043.09 1034.43 1040.89C1035.24 1040.58 1044.14 1037.36 1044.97 1037.07L1064.7 1030.24C1069.26 1028.66 1072.99 1029.49 1075.95 1033.4C1077.55 1035.51 1077.51 1039.82 1077.51 1042.68L1077.74 1124.54C1077.74 1129.66 1076.08 1132.57 1072.44 1133.71C1070.3 1134.38 1068.01 1134.22 1065.88 1133.51L1065.91 1133.52Z" fill="#ABB768"/>
<path d="M1044.69 1076.42L1032.52 1072.1C1031.44 1072.1 1030.56 1071.15 1030.56 1069.98L1030.32 1049.43C1030.32 1048.26 1031.21 1047.31 1032.29 1047.31L1045.07 1043.32C1046.15 1043.32 1047.04 1044.27 1047.04 1045.43L1046.66 1074.29C1046.66 1075.45 1045.77 1076.41 1044.69 1076.41V1076.42Z" fill="#EEDCBB"/>
<path d="M1153.53 816.553L1124.73 810.095L1115.95 808.4C1109.64 807.558 1104.74 802.212 1104.74 795.797V767.212C1104.74 760.462 1106.04 753.669 1112.54 753.194C1113.03 753.162 1113.52 753.119 1114 753.021L1155.6 744.9C1157.2 744.587 1158.87 744.587 1160.42 745.073C1165.35 746.628 1167.77 751.769 1167.77 757.6L1168.05 804.188C1168.05 810.344 1163.54 815.517 1157.61 816.672C1156.26 816.931 1154.86 816.856 1153.52 816.564L1153.53 816.553Z" fill="#3E5D50"/>
<path d="M1151.87 805.366L1139.52 803.746C1136.54 803.746 1134.1 801.305 1134.1 798.325V784.793C1134.1 781.813 1136.54 779.372 1139.52 779.372H1151.87C1154.85 779.372 1157.29 781.813 1157.29 784.793V799.955C1157.29 802.936 1154.85 805.377 1151.87 805.377V805.366Z" fill="#ECCCAD"/>
<path d="M1153.53 1104.32L1124.73 1097.86L1115.95 1096.17C1109.64 1095.32 1104.74 1089.98 1104.74 1083.56V1054.98C1104.74 1048.23 1106.04 1041.44 1112.54 1040.96C1113.03 1040.93 1113.52 1040.89 1114 1040.79L1155.6 1032.67C1157.2 1032.35 1158.87 1032.35 1160.42 1032.84C1165.35 1034.39 1167.77 1039.54 1167.77 1045.37L1168.05 1091.95C1168.05 1098.11 1163.54 1103.28 1157.61 1104.44C1156.26 1104.7 1154.86 1104.62 1153.52 1104.33L1153.53 1104.32Z" fill="#3E5D50"/>
<path d="M1165.76 930.247L1134.04 919.945C1132.28 919.621 1132.28 919.729 1131.45 919.405C1124.54 916.694 1119.54 913.26 1119.54 906.489V846.575C1119.54 839.825 1125.57 835.819 1131.95 833.519C1132.83 833.205 1142.39 829.836 1143.27 829.534L1164.46 822.395C1169.36 820.743 1173.37 821.618 1176.54 825.7C1178.26 827.892 1178.23 832.406 1178.23 835.387L1178.47 920.863C1178.47 926.209 1176.67 929.254 1172.78 930.431C1170.49 931.122 1168.02 930.971 1165.75 930.237L1165.76 930.247Z" fill="#699215"/>
<path d="M1167.59 870.723H1150.84C1149.45 870.723 1148.3 869.578 1148.3 868.185L1149.02 838.314C1149.02 836.921 1150.16 835.776 1151.56 835.776L1168.08 830.981C1169.47 830.981 1170.62 832.126 1170.62 833.519L1170.13 868.185C1170.13 869.578 1168.99 870.723 1167.59 870.723Z" fill="#EEDCBB"/>
<path d="M1120.52 1034.92L1150.06 1025.06C1151.7 1024.75 1151.7 1024.86 1152.47 1024.55C1158.91 1021.95 1163.56 1018.66 1163.56 1012.17V954.793C1163.56 948.336 1157.95 944.491 1152 942.288C1151.19 941.986 1142.28 938.757 1141.46 938.476L1121.73 931.64C1117.16 930.063 1113.43 930.895 1110.47 934.804C1108.87 936.91 1108.91 941.219 1108.91 944.081L1108.68 1025.94C1108.68 1031.06 1110.34 1033.97 1113.98 1035.11C1116.12 1035.78 1118.41 1035.63 1120.54 1034.91L1120.52 1034.92Z" fill="#ABB768"/>
<path d="M1141.73 977.817L1153.9 973.498C1154.98 973.498 1155.86 972.547 1155.86 971.381L1156.1 950.83C1156.1 949.664 1155.21 948.714 1154.13 948.714L1141.35 944.718C1140.27 944.718 1139.38 945.668 1139.38 946.834L1139.76 975.69C1139.76 976.856 1140.65 977.807 1141.73 977.807V977.817Z" fill="#EEDCBB"/>
<path d="M1256.49 729.522L1227.69 723.064L1218.91 721.369C1212.6 720.526 1207.7 715.181 1207.7 708.766V680.18C1207.7 673.431 1209.01 666.638 1215.5 666.163C1215.99 666.131 1216.48 666.087 1216.96 665.99L1258.56 657.869C1260.16 657.556 1261.84 657.556 1263.38 658.042C1268.32 659.597 1270.73 664.737 1270.73 670.569L1271.02 717.157C1271.02 723.313 1266.5 728.485 1260.57 729.641C1259.22 729.9 1257.82 729.825 1256.48 729.533L1256.49 729.522Z" fill="#3E5D50"/>
<path d="M1254.83 718.345L1242.48 716.725C1239.5 716.725 1237.06 714.285 1237.06 711.304V697.773C1237.06 694.792 1239.5 692.352 1242.48 692.352H1254.83C1257.81 692.352 1260.25 694.792 1260.25 697.773V712.935C1260.25 715.916 1257.81 718.356 1254.83 718.356V718.345Z" fill="#ECCCAD"/>
<path d="M1256.49 1017.29L1227.69 1010.83L1218.91 1009.14C1212.6 1008.29 1207.7 1002.95 1207.7 996.533V967.947C1207.7 961.197 1209.01 954.405 1215.5 953.93C1215.99 953.897 1216.48 953.854 1216.96 953.757L1258.56 945.636C1260.16 945.323 1261.84 945.323 1263.38 945.809C1268.32 947.364 1270.73 952.504 1270.73 958.336L1271.02 1004.92C1271.02 1011.08 1266.5 1016.25 1260.57 1017.41C1259.22 1017.67 1257.82 1017.59 1256.48 1017.3L1256.49 1017.29Z" fill="#3E5D50"/>
<path d="M1254.83 1006.11L1242.48 1004.49C1239.5 1004.49 1237.06 1002.05 1237.06 999.07V985.538C1237.06 982.558 1239.5 980.117 1242.48 980.117H1254.83C1257.81 980.117 1260.25 982.558 1260.25 985.538V1000.7C1260.25 1003.68 1257.81 1006.12 1254.83 1006.12V1006.11Z" fill="#ECCCAD"/>
<path d="M1268.71 843.216L1237 832.914C1235.24 832.59 1235.24 832.698 1234.4 832.374C1227.49 829.663 1222.49 826.229 1222.49 819.458V759.544C1222.49 752.794 1228.53 748.788 1234.91 746.487C1235.79 746.174 1245.34 742.805 1246.23 742.502L1267.42 735.364C1272.32 733.712 1276.33 734.587 1279.5 738.669C1281.22 740.861 1281.19 745.375 1281.19 748.356L1281.42 833.832C1281.42 839.177 1279.63 842.223 1275.73 843.4C1273.44 844.091 1270.98 843.94 1268.7 843.205L1268.71 843.216Z" fill="#699215"/>
<path d="M1270.55 783.691H1253.8C1252.41 783.691 1251.26 782.547 1251.26 781.154L1251.97 751.283C1251.97 749.89 1253.12 748.745 1254.51 748.745L1271.04 743.95C1272.43 743.95 1273.57 745.095 1273.57 746.488L1273.09 781.154C1273.09 782.547 1271.94 783.691 1270.55 783.691Z" fill="#EEDCBB"/>
<path d="M1223.47 947.904L1253.02 938.045C1254.66 937.731 1254.66 937.839 1255.43 937.526C1261.86 934.934 1266.52 931.641 1266.52 925.15V867.774C1266.52 861.316 1260.9 857.471 1254.95 855.268C1254.14 854.966 1245.23 851.737 1244.41 851.456L1224.68 844.62C1220.11 843.044 1216.39 843.875 1213.43 847.785C1211.83 849.89 1211.86 854.199 1211.86 857.061L1211.64 938.919C1211.64 944.038 1213.3 946.954 1216.94 948.088C1219.08 948.758 1221.37 948.606 1223.49 947.894L1223.47 947.904Z" fill="#ABB768"/>
<path d="M1244.68 890.787L1256.85 886.467C1257.93 886.467 1258.82 885.517 1258.82 884.351L1259.06 863.8C1259.06 862.634 1258.17 861.683 1257.09 861.683L1244.31 857.688C1243.23 857.688 1242.34 858.638 1242.34 859.804L1242.72 888.66C1242.72 889.826 1243.6 890.776 1244.68 890.776V890.787Z" fill="#EEDCBB"/>
<path d="M1268.72 1131.23L1237 1120.93C1235.24 1120.61 1235.24 1120.71 1234.41 1120.39C1227.5 1117.68 1222.5 1114.25 1222.5 1107.47V1047.56C1222.5 1040.81 1228.53 1036.8 1234.92 1034.5C1235.79 1034.19 1245.35 1030.82 1246.23 1030.52L1267.42 1023.38C1272.32 1021.73 1276.33 1022.6 1279.51 1026.69C1281.22 1028.88 1281.19 1033.39 1281.19 1036.37L1281.43 1121.85C1281.43 1127.19 1279.63 1130.24 1275.74 1131.42C1273.45 1132.11 1270.98 1131.96 1268.71 1131.22L1268.72 1131.23Z" fill="#699215"/>
<path d="M1270.55 1071.71H1253.8C1252.41 1071.71 1251.27 1070.56 1251.27 1069.17L1251.98 1039.3C1251.98 1037.91 1253.12 1036.76 1254.52 1036.76L1271.04 1031.97C1272.43 1031.97 1273.58 1033.11 1273.58 1034.5L1273.09 1069.17C1273.09 1070.56 1271.95 1071.71 1270.55 1071.71Z" fill="#EEDCBB"/>
<path d="M1363.81 790.905L1335.01 784.447L1326.23 782.752C1319.92 781.909 1315.02 776.564 1315.02 770.149V741.563C1315.02 734.814 1316.33 728.021 1322.82 727.546C1323.31 727.513 1323.8 727.47 1324.29 727.373L1365.88 719.252C1367.48 718.939 1369.16 718.939 1370.7 719.425C1375.64 720.98 1378.05 726.12 1378.05 731.952L1378.34 778.54C1378.34 784.695 1373.82 789.868 1367.89 791.024C1366.54 791.283 1365.14 791.207 1363.8 790.916L1363.81 790.905Z" fill="#3E5D50"/>
<path d="M1362.15 779.716L1349.8 778.097C1346.82 778.097 1344.38 775.656 1344.38 772.675V759.144C1344.38 756.163 1346.82 753.723 1349.8 753.723H1362.15C1365.13 753.723 1367.57 756.163 1367.57 759.144V774.306C1367.57 777.287 1365.13 779.727 1362.15 779.727V779.716Z" fill="#ECCCAD"/>
<path d="M1330.81 721.509L1360.36 711.649C1362 711.336 1362 711.444 1362.76 711.131C1369.2 708.539 1373.85 705.245 1373.85 698.755V641.378C1373.85 634.92 1368.24 631.076 1362.29 628.873C1361.48 628.571 1352.57 625.342 1351.75 625.061L1332.02 618.225C1327.45 616.648 1323.72 617.48 1320.77 621.389C1319.17 623.495 1319.2 627.804 1319.2 630.666L1318.97 712.524C1318.97 717.643 1320.64 720.559 1324.28 721.692C1326.41 722.362 1328.7 722.211 1330.83 721.498L1330.81 721.509Z" fill="#ABB768"/>
<path d="M1352.01 664.402L1364.18 660.083C1365.26 660.083 1366.14 659.132 1366.14 657.966L1366.38 637.415C1366.38 636.249 1365.5 635.298 1364.42 635.298L1351.63 631.303C1350.55 631.303 1349.66 632.253 1349.66 633.419L1350.04 662.275C1350.04 663.441 1350.93 664.392 1352.01 664.392V664.402Z" fill="#EEDCBB"/>
<path d="M1376.04 904.837L1344.32 894.535C1342.56 894.211 1342.56 894.319 1341.73 893.995C1334.82 891.284 1329.82 887.85 1329.82 881.079V821.165C1329.82 814.415 1335.85 810.409 1342.24 808.108C1343.11 807.795 1352.67 804.426 1353.55 804.123L1374.74 796.985C1379.64 795.333 1383.65 796.208 1386.83 800.29C1388.54 802.482 1388.51 806.996 1388.51 809.977L1388.75 895.453C1388.75 900.798 1386.96 903.844 1383.06 905.021C1380.77 905.712 1378.31 905.561 1376.03 904.826L1376.04 904.837Z" fill="#699215"/>
<path d="M1377.88 845.312H1361.13C1359.73 845.312 1358.59 844.167 1358.59 842.774L1359.3 812.903C1359.3 811.51 1360.45 810.365 1361.84 810.365L1378.36 805.57C1379.75 805.57 1380.9 806.715 1380.9 808.108L1380.41 842.774C1380.41 844.167 1379.27 845.312 1377.88 845.312Z" fill="#EEDCBB"/>
<path d="M1331.09 1004.81L1360.64 994.946C1362.28 994.633 1362.28 994.741 1363.05 994.428C1369.49 991.836 1374.14 988.542 1374.14 982.052V924.675C1374.14 918.217 1368.52 914.373 1362.57 912.17C1361.76 911.867 1352.85 908.638 1352.03 908.358L1332.3 901.522C1327.74 899.945 1324.01 900.777 1321.05 904.686C1319.45 906.792 1319.48 911.101 1319.48 913.962L1319.26 995.821C1319.26 1000.94 1320.92 1003.86 1324.56 1004.99C1326.7 1005.66 1328.99 1005.51 1331.12 1004.79L1331.09 1004.81Z" fill="#ABB768"/>
<path d="M1352.3 947.689L1364.48 943.369C1365.56 943.369 1366.44 942.419 1366.44 941.252L1366.68 920.701C1366.68 919.535 1365.79 918.585 1364.71 918.585L1351.93 914.589C1350.85 914.589 1349.96 915.539 1349.96 916.706L1350.34 945.561C1350.34 946.727 1351.22 947.678 1352.3 947.678V947.689Z" fill="#EEDCBB"/>
<path d="M1361.89 1106.53L1333.09 1100.08L1324.31 1098.38C1318 1097.54 1313.1 1092.19 1313.1 1085.78V1057.19C1313.1 1050.44 1314.4 1043.65 1320.89 1043.17C1321.39 1043.14 1321.88 1043.1 1322.36 1043L1363.96 1034.88C1365.56 1034.57 1367.23 1034.57 1368.78 1035.05C1373.71 1036.61 1376.13 1041.75 1376.13 1047.58L1376.41 1094.17C1376.41 1100.32 1371.9 1105.5 1365.97 1106.65C1364.62 1106.91 1363.22 1106.84 1361.88 1106.54L1361.89 1106.53Z" fill="#3E5D50"/>
<path d="M1546.39 849.739L1575.19 843.281L1583.97 841.586C1590.28 840.743 1595.18 835.398 1595.18 828.983V800.397C1595.18 793.648 1593.87 786.855 1587.38 786.38C1586.89 786.347 1586.4 786.304 1585.91 786.207L1544.31 778.086C1542.72 777.773 1541.04 777.773 1539.5 778.259C1534.56 779.814 1532.14 784.954 1532.14 790.786L1531.86 837.374C1531.86 843.529 1536.38 848.702 1542.31 849.858C1543.66 850.117 1545.06 850.041 1546.4 849.75L1546.39 849.739Z" fill="#3E5D50"/>
<path d="M1548.05 838.562L1560.39 836.942C1563.37 836.942 1565.81 834.502 1565.81 831.521V817.99C1565.81 815.009 1563.37 812.568 1560.39 812.568H1548.05C1545.07 812.568 1542.63 815.009 1542.63 817.99V833.152C1542.63 836.132 1545.07 838.573 1548.05 838.573V838.562Z" fill="#ECCCAD"/>
<path d="M1534.16 963.434L1565.88 953.131C1567.64 952.808 1567.64 952.916 1568.47 952.592C1575.38 949.881 1580.38 946.447 1580.38 939.676V879.761C1580.38 873.012 1574.35 869.005 1567.96 866.705C1567.09 866.392 1557.53 863.023 1556.65 862.72L1535.46 855.582C1530.55 853.93 1526.55 854.804 1523.37 858.886C1521.66 861.079 1521.69 865.593 1521.69 868.573L1521.45 954.049C1521.45 959.395 1523.24 962.44 1527.14 963.618C1529.43 964.309 1531.89 964.158 1534.17 963.423L1534.16 963.434Z" fill="#699215"/>
<path d="M1532.33 903.908H1549.08C1550.47 903.908 1551.61 902.764 1551.61 901.37L1550.9 871.5C1550.9 870.107 1549.76 868.962 1548.36 868.962L1531.84 864.167C1530.45 864.167 1529.3 865.312 1529.3 866.705L1529.79 901.37C1529.79 902.764 1530.93 903.908 1532.33 903.908Z" fill="#EEDCBB"/>
<path d="M1579.4 1068.11L1549.85 1058.25C1548.21 1057.94 1548.21 1058.05 1547.44 1057.73C1541.01 1055.14 1536.35 1051.85 1536.35 1045.36V987.981C1536.35 981.523 1541.97 977.679 1547.92 975.475C1548.73 975.173 1557.64 971.944 1558.46 971.663L1578.19 964.827C1582.76 963.251 1586.48 964.082 1589.44 967.992C1591.04 970.097 1591.01 974.406 1591.01 977.268L1591.23 1059.13C1591.23 1064.25 1589.57 1067.16 1585.93 1068.3C1583.79 1068.96 1581.5 1068.81 1579.38 1068.1L1579.4 1068.11Z" fill="#ABB768"/>
<path d="M1558.19 1011L1546.02 1006.68C1544.94 1006.68 1544.05 1005.73 1544.05 1004.57L1543.81 984.017C1543.81 982.85 1544.7 981.9 1545.78 981.9L1558.56 977.904C1559.64 977.904 1560.53 978.855 1560.53 980.021L1560.15 1008.88C1560.15 1010.04 1559.27 1010.99 1558.19 1010.99V1011Z" fill="#EEDCBB"/>
<path d="M1439.06 911.122L1467.86 904.664L1476.64 902.968C1482.95 902.126 1487.85 896.78 1487.85 890.366V861.78C1487.85 855.03 1486.54 848.238 1480.05 847.763C1479.56 847.73 1479.07 847.687 1478.59 847.59L1436.99 839.469C1435.39 839.156 1433.71 839.156 1432.17 839.642C1427.23 841.197 1424.82 846.337 1424.82 852.169L1424.54 898.757C1424.54 904.912 1429.05 910.085 1434.98 911.241C1436.33 911.5 1437.73 911.424 1439.07 911.133L1439.06 911.122Z" fill="#3E5D50"/>
<path d="M1440.72 899.934L1453.07 898.314C1456.05 898.314 1458.49 895.874 1458.49 892.893V879.362C1458.49 876.381 1456.05 873.94 1453.07 873.94H1440.72C1437.74 873.94 1435.3 876.381 1435.3 879.362V894.524C1435.3 897.504 1437.74 899.945 1440.72 899.945V899.934Z" fill="#ECCCAD"/>
<path d="M1426.84 737.038L1458.55 726.736C1460.31 726.412 1460.31 726.52 1461.14 726.196C1468.06 723.485 1473.06 720.051 1473.06 713.28V653.366C1473.06 646.616 1467.02 642.61 1460.64 640.31C1459.76 639.996 1450.21 636.627 1449.32 636.325L1428.13 629.186C1423.23 627.534 1419.22 628.409 1416.05 632.491C1414.33 634.683 1414.36 639.197 1414.36 642.178L1414.12 727.654C1414.12 733 1415.92 736.045 1419.82 737.222C1422.11 737.913 1424.57 737.762 1426.85 737.028L1426.84 737.038Z" fill="#699215"/>
<path d="M1425 677.523H1441.75C1443.15 677.523 1444.29 676.379 1444.29 674.986L1443.58 645.115C1443.58 643.722 1442.43 642.577 1441.04 642.577L1424.52 637.782C1423.13 637.782 1421.98 638.927 1421.98 640.32L1422.47 674.986C1422.47 676.379 1423.61 677.523 1425 677.523Z" fill="#EEDCBB"/>
<path d="M1472.07 841.727L1442.52 831.867C1440.88 831.554 1440.88 831.662 1440.11 831.349C1433.67 828.757 1429.02 825.463 1429.02 818.973V761.596C1429.02 755.138 1434.64 751.294 1440.59 749.091C1441.4 748.788 1450.3 745.559 1451.13 745.279L1470.86 738.443C1475.42 736.866 1479.15 737.697 1482.11 741.607C1483.71 743.713 1483.67 748.022 1483.67 750.883L1483.9 832.742C1483.9 837.86 1482.24 840.776 1478.6 841.91C1476.46 842.58 1474.17 842.429 1472.04 841.716L1472.07 841.727Z" fill="#ABB768"/>
<path d="M1450.87 784.62L1438.7 780.301C1437.62 780.301 1436.73 779.35 1436.73 778.184L1436.49 757.633C1436.49 756.467 1437.38 755.516 1438.46 755.516L1451.25 751.521C1452.33 751.521 1453.21 752.471 1453.21 753.637L1452.83 782.493C1452.83 783.659 1451.95 784.609 1450.87 784.609V784.62Z" fill="#EEDCBB"/>
<path d="M1426.84 1025.05L1458.55 1014.75C1460.31 1014.43 1460.31 1014.54 1461.14 1014.21C1468.06 1011.5 1473.06 1008.07 1473.06 1001.3V941.381C1473.06 934.632 1467.02 930.625 1460.64 928.325C1459.76 928.012 1450.21 924.643 1449.32 924.34L1428.13 917.202C1423.23 915.55 1419.22 916.424 1416.05 920.507C1414.33 922.699 1414.36 927.213 1414.36 930.193L1414.12 1015.67C1414.12 1021.02 1415.92 1024.06 1419.82 1025.24C1422.11 1025.93 1424.57 1025.78 1426.85 1025.04L1426.84 1025.05Z" fill="#699215"/>
<path d="M1425 965.528H1441.75C1443.14 965.528 1444.29 964.384 1444.29 962.991L1443.57 933.12C1443.57 931.727 1442.43 930.582 1441.04 930.582L1424.51 925.787C1423.12 925.787 1421.97 926.932 1421.97 928.325L1422.46 962.991C1422.46 964.384 1423.61 965.528 1425 965.528Z" fill="#EEDCBB"/>
<path d="M1471.78 1125.02L1442.24 1115.16C1440.6 1114.85 1440.6 1114.96 1439.83 1114.65C1433.39 1112.05 1428.74 1108.76 1428.74 1102.27V1044.89C1428.74 1038.44 1434.35 1034.59 1440.3 1032.39C1441.11 1032.09 1450.02 1028.86 1450.84 1028.58L1470.57 1021.74C1475.14 1020.16 1478.87 1020.99 1481.83 1024.9C1483.43 1027.01 1483.39 1031.32 1483.39 1034.18L1483.62 1116.04C1483.62 1121.16 1481.96 1124.07 1478.32 1125.21C1476.18 1125.88 1473.89 1125.73 1471.76 1125.01L1471.78 1125.02Z" fill="#ABB768"/>
<path d="M1450.57 1067.91L1438.4 1063.59C1437.32 1063.59 1436.44 1062.64 1436.44 1061.47L1436.2 1040.92C1436.2 1039.75 1437.08 1038.8 1438.16 1038.8L1450.95 1034.81C1452.03 1034.81 1452.92 1035.76 1452.92 1036.92L1452.54 1065.78C1452.54 1066.95 1451.65 1067.9 1450.57 1067.9V1067.91Z" fill="#EEDCBB"/>
<path d="M1581.42 770.742L1551.87 760.883C1550.23 760.569 1550.23 760.677 1549.46 760.364C1543.03 757.772 1538.37 754.479 1538.37 747.988V690.612C1538.37 684.154 1543.99 680.309 1549.94 678.106C1550.75 677.804 1559.66 674.575 1560.48 674.294L1580.21 667.458C1584.78 665.882 1588.5 666.713 1591.46 670.622C1593.06 672.728 1593.03 677.037 1593.03 679.899L1593.25 761.757C1593.25 766.876 1591.59 769.792 1587.95 770.926C1585.81 771.595 1583.52 771.444 1581.4 770.731L1581.42 770.742Z" fill="#ABB768"/>
<path d="M1560.21 713.625L1548.04 709.305C1546.96 709.305 1546.07 708.355 1546.07 707.189L1545.83 686.638C1545.83 685.471 1546.72 684.521 1547.8 684.521L1560.58 680.525C1561.66 680.525 1562.55 681.476 1562.55 682.642L1562.17 711.498C1562.17 712.664 1561.29 713.614 1560.21 713.614V713.625Z" fill="#EEDCBB"/>
<path d="M1385.07 1017.86L1397.07 993.456L1388.31 1019.2L1414.05 1010.43L1389.65 1022.44L1414.05 1034.45L1388.31 1025.68L1397.07 1051.43L1385.07 1027.02L1373.06 1051.43L1381.83 1025.68L1356.08 1034.45L1380.48 1022.44L1356.08 1010.43L1381.83 1019.2L1373.06 993.456L1385.07 1017.86Z" fill="#312E30"/>
<path d="M1100.68 909.34L1111.02 888.336L1103.47 910.496L1125.63 902.947L1104.62 913.282L1125.63 923.617L1103.47 916.068L1111.02 938.228L1100.68 917.224L1090.35 938.228L1097.89 916.068L1075.73 923.617L1096.74 913.282L1075.73 902.947L1097.89 910.496L1090.35 888.336L1100.68 909.34Z" fill="#312E30"/>
<path d="M1500.4 1065.34L1509.58 1046.69L1502.89 1066.36L1522.56 1059.67L1503.91 1068.83L1522.56 1078.01L1502.89 1071.32L1509.58 1090.99L1500.4 1072.34L1491.23 1090.99L1497.93 1071.32L1478.25 1078.01L1496.9 1068.83L1478.25 1059.67L1497.93 1066.36L1491.23 1046.69L1500.4 1065.34Z" fill="#312E30"/>
<path d="M1301.85 861.921L1308.34 848.725L1303.6 862.645L1317.52 857.904L1304.32 864.394L1317.52 870.885L1303.6 866.144L1308.34 880.053L1301.85 866.867L1295.36 880.053L1300.1 866.144L1286.18 870.885L1299.38 864.394L1286.18 857.904L1300.1 862.645L1295.36 848.725L1301.85 861.921Z" fill="#312E30"/>
<mask id="mask1_1214_573" style="mask-type:alpha" maskUnits="userSpaceOnUse" x="647" y="814" width="1557" height="434">
<path d="M647.219 864.809V1247.37H2203.16V860.043C1686.16 798.319 1163.94 799.88 647.219 864.809Z" fill="#0E3C6C"/>
</mask>
<g mask="url(#mask1_1214_573)">
</g>
</g>
<g clip-path="url(#clip2_1214_573)">
<path d="M1355.85 812.762L1327.04 806.304L1318.26 804.609C1311.96 803.767 1307.05 798.421 1307.05 792.006V763.421C1307.05 756.671 1308.36 749.878 1314.85 749.403C1315.35 749.371 1315.83 749.328 1316.32 749.23L1357.92 741.109C1359.52 740.796 1361.19 740.796 1362.74 741.282C1367.67 742.837 1370.09 747.978 1370.09 753.809L1370.37 800.397C1370.37 806.553 1365.86 811.726 1359.93 812.881C1358.58 813.14 1357.17 813.065 1355.83 812.773L1355.85 812.762Z" fill="#56806F"/>
<path d="M1354.18 801.586L1341.84 799.966C1338.86 799.966 1336.42 797.525 1336.42 794.544V781.013C1336.42 778.032 1338.86 775.592 1341.84 775.592H1354.18C1357.16 775.592 1359.6 778.032 1359.6 781.013V796.175C1359.6 799.156 1357.16 801.596 1354.18 801.596V801.586Z" fill="#ECCCAD"/>
<path d="M1355.85 1100.53L1327.04 1094.07L1318.26 1092.38C1311.96 1091.53 1307.05 1086.19 1307.05 1079.77V1051.19C1307.05 1044.44 1308.36 1037.65 1314.85 1037.17C1315.35 1037.14 1315.83 1037.1 1316.32 1037L1357.92 1028.88C1359.52 1028.56 1361.19 1028.56 1362.74 1029.05C1367.67 1030.6 1370.09 1035.75 1370.09 1041.58L1370.37 1088.16C1370.37 1094.32 1365.86 1099.49 1359.93 1100.65C1358.58 1100.91 1357.17 1100.83 1355.83 1100.54L1355.85 1100.53Z" fill="#56806F"/>
<path d="M1354.18 1089.35L1341.84 1087.73C1338.86 1087.73 1336.42 1085.29 1336.42 1082.31V1068.78C1336.42 1065.8 1338.86 1063.36 1341.84 1063.36H1354.18C1357.16 1063.36 1359.6 1065.8 1359.6 1068.78V1083.94C1359.6 1086.92 1357.16 1089.36 1354.18 1089.36V1089.35Z" fill="#ECCCAD"/>
<path d="M1368.07 926.457L1336.35 916.155C1334.59 915.831 1334.59 915.939 1333.76 915.615C1326.85 912.904 1321.85 909.47 1321.85 902.699V842.785C1321.85 836.035 1327.88 832.029 1334.27 829.729C1335.14 829.415 1344.7 826.046 1345.58 825.744L1366.77 818.605C1371.68 816.953 1375.68 817.828 1378.86 821.91C1380.57 824.102 1380.54 828.616 1380.54 831.597L1380.78 917.073C1380.78 922.418 1378.99 925.464 1375.09 926.641C1372.8 927.332 1370.34 927.181 1368.06 926.447L1368.07 926.457Z" fill="#722E32"/>
<path d="M1369.91 866.932H1353.16C1351.77 866.932 1350.62 865.787 1350.62 864.394L1351.33 834.523C1351.33 833.13 1352.48 831.985 1353.87 831.985L1370.39 827.19C1371.79 827.19 1372.93 828.335 1372.93 829.728L1372.45 864.394C1372.45 865.787 1371.3 866.932 1369.91 866.932Z" fill="#EEDCBB"/>
<path d="M1322.83 1031.14L1352.38 1021.28C1354.02 1020.97 1354.02 1021.08 1354.79 1020.77C1361.22 1018.17 1365.88 1014.88 1365.88 1008.39V951.014C1365.88 944.556 1360.26 940.712 1354.31 938.509C1353.5 938.206 1344.59 934.977 1343.77 934.696L1324.04 927.861C1319.47 926.284 1315.75 927.115 1312.79 931.025C1311.19 933.131 1311.22 937.44 1311.22 940.301L1311 1022.16C1311 1027.28 1312.66 1030.19 1316.3 1031.33C1318.44 1032 1320.73 1031.85 1322.85 1031.13L1322.83 1031.14Z" fill="#ABB768"/>
<path d="M1344.04 974.027L1356.21 969.708C1357.29 969.708 1358.18 968.757 1358.18 967.591L1358.42 947.04C1358.42 945.874 1357.53 944.923 1356.45 944.923L1343.66 940.928C1342.58 940.928 1341.7 941.878 1341.7 943.044L1342.08 971.9C1342.08 973.066 1342.96 974.017 1344.04 974.017V974.027Z" fill="#EEDCBB"/>
<path d="M1446.91 631.853L1418.11 625.395L1409.33 623.7C1403.03 622.857 1398.12 617.512 1398.12 611.097V582.511C1398.12 575.762 1399.43 568.969 1405.92 568.494C1406.42 568.462 1406.9 568.418 1407.39 568.321L1448.99 560.2C1450.59 559.887 1452.26 559.887 1453.8 560.373C1458.74 561.928 1461.16 567.069 1461.16 572.9L1461.44 619.488C1461.44 625.644 1456.92 630.817 1451 631.972C1449.65 632.231 1448.24 632.156 1446.9 631.864L1446.91 631.853Z" fill="#56806F"/>
<path d="M1446.91 919.621L1418.11 913.163L1409.33 911.467C1403.03 910.625 1398.12 905.279 1398.12 898.865V870.279C1398.12 863.53 1399.43 856.737 1405.92 856.262C1406.42 856.229 1406.9 856.186 1407.39 856.089L1448.99 847.968C1450.59 847.655 1452.26 847.655 1453.8 848.141C1458.74 849.696 1461.16 854.836 1461.16 860.668L1461.44 907.256C1461.44 913.411 1456.92 918.584 1451 919.74C1449.65 919.999 1448.24 919.923 1446.9 919.632L1446.91 919.621Z" fill="#56806F"/>
<path d="M1445.25 908.444L1432.91 906.824C1429.93 906.824 1427.49 904.383 1427.49 901.403V887.871C1427.49 884.891 1429.93 882.45 1432.91 882.45H1445.25C1448.23 882.45 1450.67 884.891 1450.67 887.871V903.034C1450.67 906.014 1448.23 908.455 1445.25 908.455V908.444Z" fill="#ECCCAD"/>
<path d="M1459.14 745.548L1427.42 735.246C1425.66 734.922 1425.66 735.03 1424.83 734.706C1417.92 731.995 1412.92 728.561 1412.92 721.79V661.876C1412.92 655.126 1418.96 651.12 1425.34 648.819C1426.21 648.506 1435.77 645.137 1436.66 644.834L1457.84 637.696C1462.75 636.044 1466.75 636.919 1469.93 641.001C1471.65 643.193 1471.61 647.707 1471.61 650.688L1471.85 736.164C1471.85 741.509 1470.06 744.555 1466.16 745.732C1463.87 746.423 1461.41 746.272 1459.13 745.537L1459.14 745.548Z" fill="#722E32"/>
<path d="M1460.98 686.022H1444.23C1442.83 686.022 1441.69 684.878 1441.69 683.485L1442.4 653.614C1442.4 652.221 1443.55 651.076 1444.94 651.076L1461.46 646.281C1462.86 646.281 1464 647.426 1464 648.819L1463.51 683.485C1463.51 684.878 1462.37 686.022 1460.98 686.022Z" fill="#EEDCBB"/>
<path d="M1413.9 850.236L1443.45 840.377C1445.09 840.064 1445.09 840.171 1445.86 839.858C1452.29 837.266 1456.95 833.973 1456.95 827.482V770.106C1456.95 763.648 1451.33 759.803 1445.38 757.6C1444.57 757.298 1435.66 754.069 1434.84 753.788L1415.11 746.952C1410.54 745.376 1406.82 746.207 1403.86 750.117C1402.26 752.222 1402.29 756.531 1402.29 759.393L1402.07 841.251C1402.07 846.37 1403.73 849.286 1407.37 850.42C1409.51 851.09 1411.8 850.938 1413.92 850.226L1413.9 850.236Z" fill="#ABB768"/>
<path d="M1435.11 793.119L1447.28 788.8C1448.36 788.8 1449.25 787.849 1449.25 786.683L1449.49 766.132C1449.49 764.966 1448.6 764.015 1447.52 764.015L1434.73 760.02C1433.66 760.02 1432.77 760.97 1432.77 762.136L1433.15 790.992C1433.15 792.158 1434.03 793.108 1435.11 793.108V793.119Z" fill="#EEDCBB"/>
<path d="M1425.65 1033.56L1457.37 1023.26C1459.13 1022.94 1459.13 1023.05 1459.96 1022.72C1466.87 1020.01 1471.87 1016.58 1471.87 1009.81V949.891C1471.87 943.142 1465.84 939.135 1459.45 936.835C1458.58 936.522 1449.02 933.152 1448.14 932.85L1426.95 925.712C1422.05 924.059 1418.04 924.934 1414.86 929.016C1413.15 931.209 1413.18 935.723 1413.18 938.703L1412.94 1024.18C1412.94 1029.52 1414.73 1032.57 1418.63 1033.75C1420.92 1034.44 1423.38 1034.29 1425.66 1033.55L1425.65 1033.56Z" fill="#722E32"/>
<path d="M1423.81 974.038H1440.56C1441.96 974.038 1443.1 972.893 1443.1 971.5L1442.39 941.63C1442.39 940.236 1441.24 939.092 1439.85 939.092L1423.33 934.297C1421.94 934.297 1420.79 935.442 1420.79 936.835L1421.28 971.5C1421.28 972.893 1422.42 974.038 1423.81 974.038Z" fill="#EEDCBB"/>
<path d="M1454.68 1133.52L1425.13 1123.66C1423.49 1123.35 1423.49 1123.46 1422.72 1123.14C1416.29 1120.55 1411.63 1117.26 1411.63 1110.77V1053.39C1411.63 1046.93 1417.25 1043.09 1423.2 1040.89C1424.01 1040.58 1432.92 1037.36 1433.74 1037.07L1453.47 1030.24C1458.04 1028.66 1461.76 1029.49 1464.72 1033.4C1466.32 1035.51 1466.29 1039.82 1466.29 1042.68L1466.51 1124.54C1466.51 1129.66 1464.85 1132.57 1461.21 1133.71C1459.07 1134.38 1456.78 1134.22 1454.66 1133.51L1454.68 1133.52Z" fill="#ABB768"/>
<path d="M1433.47 1076.42L1421.3 1072.1C1420.22 1072.1 1419.33 1071.15 1419.33 1069.98L1419.09 1049.43C1419.09 1048.26 1419.98 1047.31 1421.06 1047.31L1433.85 1043.32C1434.93 1043.32 1435.81 1044.27 1435.81 1045.43L1435.43 1074.29C1435.43 1075.45 1434.55 1076.41 1433.47 1076.41V1076.42Z" fill="#EEDCBB"/>
<path d="M1542.3 1104.32L1513.5 1097.86L1504.72 1096.17C1498.42 1095.32 1493.51 1089.98 1493.51 1083.56V1054.98C1493.51 1048.23 1494.82 1041.44 1501.31 1040.96C1501.81 1040.93 1502.29 1040.89 1502.78 1040.79L1544.38 1032.67C1545.98 1032.35 1547.65 1032.35 1549.19 1032.84C1554.13 1034.39 1556.55 1039.54 1556.55 1045.37L1556.83 1091.95C1556.83 1098.11 1552.32 1103.28 1546.39 1104.44C1545.04 1104.7 1543.63 1104.62 1542.29 1104.33L1542.3 1104.32Z" fill="#56806F"/>
<path d="M1509.29 1034.92L1538.84 1025.06C1540.48 1024.75 1540.48 1024.86 1541.25 1024.55C1547.68 1021.95 1552.34 1018.66 1552.34 1012.17V954.793C1552.34 948.336 1546.72 944.491 1540.77 942.288C1539.96 941.986 1531.05 938.757 1530.23 938.476L1510.5 931.64C1505.93 930.063 1502.21 930.895 1499.25 934.804C1497.65 936.91 1497.68 941.219 1497.68 944.081L1497.46 1025.94C1497.46 1031.06 1499.12 1033.97 1502.76 1035.11C1504.9 1035.78 1507.19 1035.63 1509.31 1034.91L1509.29 1034.92Z" fill="#ABB768"/>
<path d="M1530.5 977.817L1542.67 973.498C1543.75 973.498 1544.64 972.547 1544.64 971.381L1544.88 950.83C1544.88 949.664 1543.99 948.714 1542.91 948.714L1530.12 944.718C1529.04 944.718 1528.16 945.668 1528.16 946.834L1528.54 975.69C1528.54 976.856 1529.42 977.807 1530.5 977.807V977.817Z" fill="#EEDCBB"/>
<path d="M1645.26 729.522L1616.46 723.064L1607.68 721.369C1601.38 720.526 1596.47 715.181 1596.47 708.766V680.18C1596.47 673.431 1597.78 666.638 1604.27 666.163C1604.77 666.131 1605.25 666.087 1605.74 665.99L1647.34 657.869C1648.94 657.556 1650.61 657.556 1652.15 658.042C1657.09 659.597 1659.51 664.737 1659.51 670.569L1659.79 717.157C1659.79 723.313 1655.27 728.485 1649.35 729.641C1648 729.9 1646.59 729.825 1645.25 729.533L1645.26 729.522Z" fill="#56806F"/>
<path d="M1645.26 1017.29L1616.46 1010.83L1607.68 1009.14C1601.38 1008.29 1596.47 1002.95 1596.47 996.533V967.947C1596.47 961.197 1597.78 954.405 1604.27 953.93C1604.77 953.897 1605.25 953.854 1605.74 953.757L1647.34 945.636C1648.94 945.323 1650.61 945.323 1652.15 945.809C1657.09 947.364 1659.51 952.504 1659.51 958.336L1659.79 1004.92C1659.79 1011.08 1655.27 1016.25 1649.35 1017.41C1648 1017.67 1646.59 1017.59 1645.25 1017.3L1645.26 1017.29Z" fill="#56806F"/>
<path d="M1489.45 909.34L1499.79 888.336L1492.24 910.496L1514.4 902.947L1493.4 913.282L1514.4 923.617L1492.24 916.068L1499.79 938.228L1489.45 917.224L1479.12 938.228L1486.67 916.068L1464.51 923.617L1485.51 913.282L1464.51 902.947L1486.67 910.496L1479.12 888.336L1489.45 909.34Z" fill="#312E30"/>
</g>
<g clip-path="url(#clip3_1214_573)">
<path d="M65.334 856.467L36.5324 850.009L27.7526 848.313C21.4458 847.471 16.543 842.125 16.543 835.71V807.125C16.543 800.375 17.8497 793.582 24.34 793.107C24.8368 793.075 25.3228 793.032 25.8087 792.935L67.4074 784.814C69.0057 784.5 70.6796 784.5 72.2239 784.986C77.1592 786.541 79.5782 791.682 79.5782 797.513L79.859 844.101C79.859 850.257 75.3449 855.43 69.4161 856.585C68.0662 856.844 66.6623 856.769 65.3232 856.477L65.334 856.467Z" fill="#3E5D50"/>
<path d="M63.671 845.29L51.3275 843.67C48.3469 843.67 45.9062 841.229 45.9062 838.249V824.717C45.9062 821.737 48.3469 819.296 51.3275 819.296H63.671C66.6516 819.296 69.0922 821.737 69.0922 824.717V839.879C69.0922 842.86 66.6516 845.301 63.671 845.301V845.29Z" fill="#ECCCAD"/>
<path d="M77.5567 682.394L45.8393 672.091C44.0791 671.767 44.0791 671.875 43.2475 671.552C36.336 668.841 31.3359 665.407 31.3359 658.636V598.721C31.3359 591.972 37.3727 587.965 43.7551 585.665C44.6298 585.352 54.1871 581.983 55.0727 581.68L76.2608 574.542C81.1637 572.89 85.1702 573.764 88.3452 577.846C90.0623 580.039 90.0299 584.553 90.0299 587.533L90.2674 673.009C90.2674 678.355 88.4748 681.4 84.5762 682.578C82.2868 683.269 79.8246 683.118 77.5459 682.383L77.5567 682.394Z" fill="#699215"/>
<path d="M32.3204 787.081L61.8671 777.221C63.5086 776.908 63.5086 777.016 64.2753 776.703C70.7117 774.111 75.3662 770.817 75.3662 764.327V706.951C75.3662 700.493 69.7506 696.648 63.8002 694.445C62.9902 694.143 54.0808 690.914 53.2601 690.633L33.5299 683.797C28.9618 682.22 25.236 683.052 22.2771 686.961C20.6788 689.067 20.7112 693.376 20.7112 696.238L20.4844 778.096C20.4844 783.215 22.1475 786.131 25.7868 787.265C27.9251 787.934 30.2145 787.783 32.342 787.07L32.3204 787.081Z" fill="#ABB768"/>
<path d="M53.5309 729.964L65.7017 725.644C66.7816 725.644 67.6672 724.694 67.6672 723.528L67.9047 702.977C67.9047 701.81 67.0192 700.86 65.9393 700.86L53.153 696.864C52.073 696.864 51.1875 697.815 51.1875 698.981L51.5655 727.837C51.5655 729.003 52.451 729.953 53.5309 729.953V729.964Z" fill="#EEDCBB"/>
<path d="M77.5567 970.41L45.8393 960.107C44.0791 959.783 44.0791 959.891 43.2475 959.567C36.336 956.857 31.3359 953.422 31.3359 946.651V886.737C31.3359 879.987 37.3727 875.981 43.7551 873.681C44.6298 873.367 54.1871 869.998 55.0727 869.696L76.2608 862.557C81.1637 860.905 85.1702 861.78 88.3452 865.862C90.0623 868.054 90.0299 872.568 90.0299 875.549L90.2674 961.025C90.2674 966.371 88.4748 969.416 84.5762 970.593C82.2868 971.284 79.8246 971.133 77.5459 970.399L77.5567 970.41Z" fill="#699215"/>
<path d="M79.3929 910.884H62.6433C61.2502 910.884 60.1055 909.739 60.1055 908.346L60.8182 878.475C60.8182 877.082 61.9629 875.937 63.356 875.937L79.8789 871.143C81.272 871.143 82.4167 872.287 82.4167 873.68L81.9308 908.346C81.9308 909.739 80.786 910.884 79.3929 910.884Z" fill="#EEDCBB"/>
<path d="M32.6133 1070.37L62.1601 1060.51C63.8016 1060.19 63.8016 1060.3 64.5683 1059.99C71.0047 1057.4 75.6591 1054.1 75.6591 1047.61V990.237C75.6591 983.779 70.0435 979.934 64.0931 977.731C63.2832 977.429 54.3738 974.2 53.5531 973.919L33.8228 967.083C29.2548 965.507 25.529 966.338 22.57 970.247C20.9717 972.353 21.0041 976.662 21.0041 979.524L20.7773 1061.38C20.7773 1066.5 22.4404 1069.42 26.0798 1070.55C28.218 1071.22 30.5075 1071.07 32.6349 1070.36L32.6133 1070.37Z" fill="#ABB768"/>
<path d="M53.8239 1013.26L65.9947 1008.94C67.0746 1008.94 67.9601 1007.99 67.9601 1006.82L68.1977 986.273C68.1977 985.107 67.3122 984.157 66.2322 984.157L53.4459 980.161C52.366 980.161 51.4805 981.111 51.4805 982.278L51.8584 1011.13C51.8584 1012.3 52.744 1013.25 53.8239 1013.25V1013.26Z" fill="#EEDCBB"/>
<path d="M156.4 675.557L127.599 669.099L118.819 667.404C112.512 666.562 107.609 661.216 107.609 654.801V626.216C107.609 619.466 108.916 612.673 115.406 612.198C115.903 612.166 116.389 612.123 116.875 612.025L158.474 603.904C160.072 603.591 161.746 603.591 163.29 604.077C168.226 605.632 170.645 610.773 170.645 616.604L170.925 663.192C170.925 669.348 166.411 674.521 160.483 675.676C159.133 675.935 157.729 675.86 156.39 675.568L156.4 675.557Z" fill="#3E5D50"/>
<path d="M154.737 664.38L142.394 662.76C139.413 662.76 136.973 660.319 136.973 657.338V643.807C136.973 640.826 139.413 638.386 142.394 638.386H154.737C157.718 638.386 160.159 640.826 160.159 643.807V658.969C160.159 661.95 157.718 664.39 154.737 664.39V664.38Z" fill="#ECCCAD"/>
<path d="M135.14 789.5L166.858 779.198C168.618 778.874 168.618 778.982 169.45 778.658C176.361 775.947 181.361 772.513 181.361 765.742V705.828C181.361 699.078 175.324 695.072 168.942 692.772C168.067 692.458 158.51 689.089 157.624 688.787L136.436 681.648C131.533 679.996 127.527 680.871 124.352 684.953C122.635 687.145 122.667 691.659 122.667 694.64L122.43 780.116C122.43 785.461 124.222 788.507 128.121 789.684C130.41 790.375 132.873 790.224 135.151 789.49L135.14 789.5Z" fill="#699215"/>
<path d="M133.305 729.975H150.055C151.448 729.975 152.593 728.83 152.593 727.437L151.88 697.566C151.88 696.173 150.735 695.028 149.342 695.028L132.819 690.233C131.426 690.233 130.281 691.378 130.281 692.771L130.767 727.437C130.767 728.83 131.912 729.975 133.305 729.975Z" fill="#EEDCBB"/>
<path d="M164.171 889.458L134.624 879.598C132.983 879.285 132.983 879.393 132.216 879.08C125.779 876.488 121.125 873.194 121.125 866.704V809.328C121.125 802.87 126.741 799.025 132.691 796.822C133.501 796.52 142.41 793.291 143.231 793.01L162.961 786.174C167.529 784.597 171.255 785.429 174.214 789.338C175.812 791.444 175.78 795.753 175.78 798.615L176.007 880.473C176.007 885.592 174.344 888.508 170.704 889.642C168.566 890.311 166.277 890.16 164.149 889.447L164.171 889.458Z" fill="#ABB768"/>
<path d="M142.964 832.352L130.793 828.032C129.713 828.032 128.827 827.082 128.827 825.915L128.59 805.364C128.59 804.198 129.475 803.248 130.555 803.248L143.342 799.252C144.422 799.252 145.307 800.202 145.307 801.369L144.929 830.224C144.929 831.391 144.044 832.341 142.964 832.341V832.352Z" fill="#EEDCBB"/>
<path d="M129.513 963.337L158.315 956.879L167.095 955.183C173.401 954.341 178.304 948.995 178.304 942.58V913.995C178.304 907.245 176.998 900.453 170.507 899.977C170.01 899.945 169.524 899.902 169.039 899.805L127.44 891.684C125.842 891.37 124.168 891.37 122.623 891.856C117.688 893.412 115.269 898.552 115.269 904.384L114.988 950.972C114.988 957.127 119.502 962.3 125.431 963.455C126.781 963.715 128.185 963.639 129.524 963.347L129.513 963.337Z" fill="#3E5D50"/>
<path d="M131.175 952.149L143.519 950.529C146.499 950.529 148.94 948.089 148.94 945.108V931.576C148.94 928.596 146.499 926.155 143.519 926.155H131.175C128.195 926.155 125.754 928.596 125.754 931.576V946.739C125.754 949.719 128.195 952.16 131.175 952.16V952.149Z" fill="#ECCCAD"/>
<path d="M117.289 1077.03L149.006 1066.73C150.767 1066.4 150.767 1066.51 151.598 1066.19C158.51 1063.48 163.51 1060.04 163.51 1053.27V993.358C163.51 986.609 157.473 982.602 151.09 980.302C150.216 979.989 140.658 976.619 139.773 976.317L118.585 969.179C113.682 967.526 109.675 968.401 106.5 972.483C104.783 974.675 104.816 979.189 104.816 982.17L104.578 1067.65C104.578 1072.99 106.371 1076.04 110.269 1077.21C112.559 1077.91 115.021 1077.75 117.3 1077.02L117.289 1077.03Z" fill="#699215"/>
<path d="M115.453 1017.5H132.203C133.596 1017.5 134.741 1016.36 134.741 1014.97L134.028 985.096C134.028 983.703 132.883 982.559 131.49 982.559L114.968 977.764C113.574 977.764 112.43 978.908 112.43 980.301L112.916 1014.97C112.916 1016.36 114.06 1017.5 115.453 1017.5Z" fill="#EEDCBB"/>
<path d="M251.795 860.257L222.993 853.799L214.214 852.103C207.907 851.261 203.004 845.915 203.004 839.5V810.915C203.004 804.165 204.311 797.373 210.801 796.897C211.298 796.865 211.784 796.822 212.27 796.725L253.868 788.604C255.467 788.29 257.141 788.29 258.685 788.776C263.62 790.331 266.039 795.472 266.039 801.303L266.32 847.891C266.32 854.047 261.806 859.22 255.877 860.375C254.527 860.635 253.123 860.559 251.784 860.267L251.795 860.257Z" fill="#3E5D50"/>
<path d="M250.132 849.08L237.788 847.46C234.808 847.46 232.367 845.019 232.367 842.039V828.507C232.367 825.527 234.808 823.086 237.788 823.086H250.132C253.113 823.086 255.553 825.527 255.553 828.507V843.669C255.553 846.65 253.113 849.09 250.132 849.09V849.08Z" fill="#ECCCAD"/>
<path d="M264.018 686.184L232.3 675.881C230.54 675.558 230.54 675.666 229.708 675.342C222.797 672.631 217.797 669.197 217.797 662.426V602.511C217.797 595.762 223.834 591.755 230.216 589.455C231.091 589.142 240.648 585.773 241.534 585.47L262.722 578.332C267.625 576.68 271.631 577.554 274.806 581.636C276.523 583.829 276.491 588.343 276.491 591.323L276.728 676.799C276.728 682.145 274.936 685.19 271.037 686.368C268.748 687.059 266.286 686.908 264.007 686.173L264.018 686.184Z" fill="#699215"/>
<path d="M218.777 790.861L248.324 781.002C249.966 780.688 249.966 780.797 250.732 780.483C257.169 777.892 261.823 774.598 261.823 768.107V710.731C261.823 704.273 256.208 700.428 250.257 698.225C249.447 697.923 240.538 694.694 239.717 694.413L219.987 687.577C215.419 686.001 211.693 686.832 208.734 690.742C207.136 692.847 207.168 697.156 207.168 700.018L206.941 781.876C206.941 786.995 208.604 789.911 212.244 791.045C214.382 791.715 216.672 791.563 218.799 790.851L218.777 790.861Z" fill="#ABB768"/>
<path d="M239.988 733.755L252.159 729.435C253.239 729.435 254.124 728.485 254.124 727.319L254.362 706.768C254.362 705.601 253.476 704.651 252.396 704.651L239.61 700.655C238.53 700.655 237.645 701.606 237.645 702.772L238.022 731.628C238.022 732.794 238.908 733.744 239.988 733.744V733.755Z" fill="#EEDCBB"/>
<path d="M264.018 974.189L232.3 963.886C230.54 963.562 230.54 963.67 229.708 963.346C222.797 960.636 217.797 957.202 217.797 950.431V890.516C217.797 883.767 223.834 879.76 230.216 877.46C231.091 877.147 240.648 873.777 241.534 873.475L262.722 866.337C267.625 864.684 271.631 865.559 274.806 869.641C276.523 871.834 276.491 876.348 276.491 879.328L276.728 964.804C276.728 970.15 274.936 973.195 271.037 974.372C268.748 975.064 266.286 974.912 264.007 974.178L264.018 974.189Z" fill="#699215"/>
<path d="M265.854 914.663H249.104C247.711 914.663 246.566 913.518 246.566 912.125L247.279 882.255C247.279 880.861 248.424 879.717 249.817 879.717L266.34 874.922C267.733 874.922 268.878 876.067 268.878 877.46L268.392 912.125C268.392 913.518 267.247 914.663 265.854 914.663Z" fill="#EEDCBB"/>
<path d="M219.07 1074.16L248.617 1064.3C250.259 1063.98 250.259 1064.09 251.025 1063.78C257.462 1061.19 262.116 1057.89 262.116 1051.4V994.027C262.116 987.569 256.501 983.724 250.55 981.521C249.74 981.219 240.831 977.99 240.01 977.709L220.28 970.873C215.712 969.297 211.986 970.128 209.027 974.037C207.429 976.143 207.461 980.452 207.461 983.314L207.234 1065.17C207.234 1070.29 208.897 1073.21 212.537 1074.34C214.675 1075.01 216.964 1074.86 219.092 1074.15L219.07 1074.16Z" fill="#ABB768"/>
<path d="M240.281 1017.05L252.452 1012.73C253.532 1012.73 254.417 1011.78 254.417 1010.61L254.655 990.064C254.655 988.897 253.769 987.947 252.689 987.947L239.903 983.951C238.823 983.951 237.938 984.902 237.938 986.068L238.315 1014.92C238.315 1016.09 239.201 1017.04 240.281 1017.04V1017.05Z" fill="#EEDCBB"/>
<path d="M354.756 773.226L325.954 766.768L317.174 765.073C310.868 764.23 305.965 758.885 305.965 752.47V723.885C305.965 717.135 307.272 710.342 313.762 709.867C314.259 709.835 314.745 709.791 315.231 709.694L356.829 701.573C358.428 701.26 360.101 701.26 361.646 701.746C366.581 703.301 369 708.442 369 714.273L369.281 760.861C369.281 767.017 364.767 772.19 358.838 773.345C357.488 773.604 356.084 773.529 354.745 773.237L354.756 773.226Z" fill="#3E5D50"/>
<path d="M353.093 762.049L340.749 760.43C337.769 760.43 335.328 757.989 335.328 755.008V741.477C335.328 738.496 337.769 736.056 340.749 736.056H353.093C356.073 736.056 358.514 738.496 358.514 741.477V756.639C358.514 759.62 356.073 762.06 353.093 762.06V762.049Z" fill="#ECCCAD"/>
<path d="M321.738 703.841L351.285 693.981C352.927 693.668 352.927 693.776 353.693 693.463C360.13 690.871 364.784 687.577 364.784 681.087V623.71C364.784 617.253 359.169 613.408 353.218 611.205C352.408 610.903 343.499 607.674 342.678 607.393L322.948 600.557C318.38 598.98 314.654 599.812 311.695 603.721C310.097 605.827 310.129 610.136 310.129 612.998L309.902 694.856C309.902 699.975 311.565 702.891 315.205 704.024C317.343 704.694 319.632 704.543 321.76 703.83L321.738 703.841Z" fill="#ABB768"/>
<path d="M342.949 646.724L355.12 642.404C356.2 642.404 357.085 641.454 357.085 640.287L357.323 619.736C357.323 618.57 356.437 617.62 355.357 617.62L342.571 613.624C341.491 613.624 340.605 614.574 340.605 615.741L340.983 644.596C340.983 645.763 341.869 646.713 342.949 646.713V646.724Z" fill="#EEDCBB"/>
<path d="M366.975 887.168L335.257 876.866C333.497 876.542 333.497 876.65 332.665 876.326C325.754 873.615 320.754 870.181 320.754 863.41V803.496C320.754 796.746 326.791 792.74 333.173 790.439C334.048 790.126 343.605 786.757 344.491 786.455L365.679 779.316C370.582 777.664 374.588 778.539 377.763 782.621C379.48 784.813 379.448 789.327 379.448 792.308L379.685 877.784C379.685 883.129 377.893 886.175 373.994 887.352C371.705 888.043 369.243 887.892 366.964 887.158L366.975 887.168Z" fill="#699215"/>
<path d="M368.811 827.644H352.061C350.668 827.644 349.523 826.499 349.523 825.106L350.236 795.235C350.236 793.842 351.381 792.697 352.774 792.697L369.297 787.902C370.69 787.902 371.835 789.047 371.835 790.44L371.349 825.106C371.349 826.499 370.204 827.644 368.811 827.644Z" fill="#EEDCBB"/>
<path d="M322.031 987.127L351.578 977.267C353.22 976.954 353.22 977.062 353.986 976.749C360.423 974.157 365.077 970.863 365.077 964.373V906.997C365.077 900.539 359.461 896.694 353.511 894.491C352.701 894.189 343.792 890.96 342.971 890.679L323.241 883.843C318.673 882.266 314.947 883.098 311.988 887.007C310.39 889.113 310.422 893.422 310.422 896.284L310.195 978.142C310.195 983.261 311.858 986.177 315.498 987.311C317.636 987.98 319.925 987.829 322.053 987.116L322.031 987.127Z" fill="#ABB768"/>
<path d="M343.242 930.021L355.413 925.701C356.493 925.701 357.378 924.751 357.378 923.584L357.616 903.033C357.616 901.867 356.73 900.917 355.65 900.917L342.864 896.921C341.784 896.921 340.898 897.871 340.898 899.038L341.276 927.893C341.276 929.059 342.162 930.01 343.242 930.01V930.021Z" fill="#EEDCBB"/>
<path d="M347.236 1070.43L318.435 1063.97L309.655 1062.28C303.348 1061.44 298.445 1056.09 298.445 1049.68V1021.09C298.445 1014.34 299.752 1007.55 306.242 1007.07C306.739 1007.04 307.225 1007 307.711 1006.9L349.31 998.778C350.908 998.465 352.582 998.465 354.126 998.951C359.062 1000.51 361.481 1005.65 361.481 1011.48L361.761 1058.07C361.761 1064.22 357.247 1069.39 351.318 1070.55C349.969 1070.81 348.565 1070.73 347.226 1070.44L347.236 1070.43Z" fill="#3E5D50"/>
<path d="M345.573 1059.25L333.23 1057.63C330.249 1057.63 327.809 1055.19 327.809 1052.21V1038.68C327.809 1035.7 330.249 1033.26 333.23 1033.26H345.573C348.554 1033.26 350.995 1035.7 350.995 1038.68V1053.84C350.995 1056.82 348.554 1059.26 345.573 1059.26V1059.25Z" fill="#ECCCAD"/>
<path d="M474.303 660.773L442.585 650.47C440.825 650.146 440.825 650.254 439.994 649.93C433.082 647.22 428.082 643.786 428.082 637.015V577.1C428.082 570.351 434.119 566.344 440.501 564.044C441.376 563.731 450.933 560.361 451.819 560.059L473.007 552.921C477.91 551.268 481.916 552.143 485.091 556.225C486.808 558.418 486.776 562.932 486.776 565.912L487.014 651.388C487.014 656.734 485.221 659.779 481.322 660.956C479.033 661.648 476.571 661.496 474.292 660.762L474.303 660.773Z" fill="#699215"/>
<path d="M429.356 760.741L458.902 750.882C460.544 750.568 460.544 750.676 461.311 750.363C467.747 747.771 472.401 744.478 472.401 737.987V680.611C472.401 674.153 466.786 670.308 460.835 668.105C460.025 667.803 451.116 664.574 450.295 664.293L430.565 657.457C425.997 655.881 422.271 656.712 419.312 660.621C417.714 662.727 417.746 667.036 417.746 669.898L417.52 751.756C417.52 756.875 419.183 759.791 422.822 760.925C424.96 761.594 427.25 761.443 429.377 760.73L429.356 760.741Z" fill="#ABB768"/>
<path d="M450.566 703.624L462.737 699.304C463.817 699.304 464.702 698.354 464.702 697.188L464.94 676.637C464.94 675.47 464.054 674.52 462.974 674.52L450.188 670.524C449.108 670.524 448.223 671.475 448.223 672.641L448.601 701.497C448.601 702.663 449.486 703.613 450.566 703.613V703.624Z" fill="#EEDCBB"/>
<path d="M460.154 862.47L431.353 856.012L422.573 854.317C416.266 853.475 411.363 848.129 411.363 841.714V813.129C411.363 806.379 412.67 799.586 419.16 799.111C419.657 799.079 420.143 799.036 420.629 798.938L462.228 790.817C463.826 790.504 465.5 790.504 467.044 790.99C471.979 792.545 474.399 797.686 474.399 803.517L474.679 850.105C474.679 856.261 470.165 861.434 464.236 862.589C462.887 862.848 461.483 862.773 460.143 862.481L460.154 862.47Z" fill="#3E5D50"/>
<path d="M458.491 851.283L446.148 849.663C443.167 849.663 440.727 847.222 440.727 844.242V830.71C440.727 827.73 443.167 825.289 446.148 825.289H458.491C461.472 825.289 463.913 827.73 463.913 830.71V845.872C463.913 848.853 461.472 851.294 458.491 851.294V851.283Z" fill="#ECCCAD"/>
<path d="M472.381 976.165L440.664 965.863C438.903 965.539 438.903 965.647 438.072 965.323C431.16 962.612 426.16 959.178 426.16 952.407V892.493C426.16 885.743 432.197 881.737 438.579 879.437C439.454 879.123 449.011 875.754 449.897 875.452L471.085 868.313C475.988 866.661 479.994 867.536 483.169 871.618C484.886 873.81 484.854 878.324 484.854 881.305L485.092 966.781C485.092 972.127 483.299 975.172 479.4 976.349C477.111 977.04 474.649 976.889 472.37 976.155L472.381 976.165Z" fill="#699215"/>
<path d="M474.205 916.64H457.456C456.063 916.64 454.918 915.495 454.918 914.102L455.631 884.231C455.631 882.838 456.775 881.693 458.169 881.693L474.691 876.898C476.084 876.898 477.229 878.043 477.229 879.436L476.743 914.102C476.743 915.495 475.599 916.64 474.205 916.64Z" fill="#EEDCBB"/>
<path d="M427.141 1080.84L456.687 1070.98C458.329 1070.67 458.329 1070.78 459.096 1070.46C465.532 1067.87 470.186 1064.58 470.186 1058.09V1000.71C470.186 994.253 464.571 990.409 458.62 988.206C457.811 987.904 448.901 984.675 448.08 984.394L428.35 977.558C423.782 975.981 420.056 976.813 417.097 980.722C415.499 982.828 415.531 987.137 415.531 989.999L415.305 1071.86C415.305 1076.98 416.968 1079.89 420.607 1081.03C422.745 1081.7 425.035 1081.54 427.162 1080.83L427.141 1080.84Z" fill="#ABB768"/>
<path d="M448.351 1023.74L460.522 1019.42C461.602 1019.42 462.487 1018.47 462.487 1017.3L462.725 996.748C462.725 995.582 461.84 994.631 460.76 994.631L447.973 990.636C446.893 990.636 446.008 991.586 446.008 992.752L446.386 1021.61C446.386 1022.77 447.271 1023.72 448.351 1023.72V1023.74Z" fill="#EEDCBB"/>
<path d="M934.072 688.916L962.873 682.458L971.653 680.762C977.96 679.92 982.863 674.574 982.863 668.16V639.574C982.863 632.824 981.556 626.032 975.066 625.557C974.569 625.524 974.083 625.481 973.597 625.384L931.998 617.263C930.4 616.95 928.726 616.95 927.182 617.436C922.247 618.991 919.828 624.131 919.828 629.963L919.547 676.551C919.547 682.706 924.061 687.879 929.99 689.035C931.34 689.294 932.744 689.218 934.083 688.927L934.072 688.916Z" fill="#3E5D50"/>
<path d="M935.734 677.727L948.077 676.107C951.058 676.107 953.498 673.667 953.498 670.686V657.155C953.498 654.174 951.058 651.733 948.077 651.733H935.734C932.753 651.733 930.312 654.174 930.312 657.155V672.317C930.312 675.297 932.753 677.738 935.734 677.738V677.727Z" fill="#ECCCAD"/>
<path d="M934.072 976.684L962.873 970.226L971.653 968.531C977.96 967.689 982.863 962.343 982.863 955.928V927.343C982.863 920.593 981.556 913.8 975.066 913.325C974.569 913.293 974.083 913.249 973.597 913.152L931.998 905.031C930.4 904.718 928.726 904.718 927.182 905.204C922.247 906.759 919.828 911.9 919.828 917.731L919.547 964.319C919.547 970.475 924.061 975.648 929.99 976.803C931.34 977.062 932.744 976.987 934.083 976.695L934.072 976.684Z" fill="#3E5D50"/>
<path d="M935.734 965.507L948.077 963.888C951.058 963.888 953.498 961.447 953.498 958.466V944.935C953.498 941.954 951.058 939.514 948.077 939.514H935.734C932.753 939.514 930.312 941.954 930.312 944.935V960.097C930.312 963.078 932.753 965.518 935.734 965.518V965.507Z" fill="#ECCCAD"/>
<path d="M921.847 802.611L953.565 792.308C955.325 791.984 955.325 792.092 956.157 791.768C963.068 789.058 968.068 785.624 968.068 778.852V718.938C968.068 712.189 962.031 708.182 955.649 705.882C954.774 705.569 945.217 702.199 944.331 701.897L923.143 694.759C918.24 693.106 914.234 693.981 911.059 698.063C909.342 700.255 909.374 704.77 909.374 707.75L909.137 793.226C909.137 798.572 910.929 801.617 914.828 802.794C917.117 803.485 919.58 803.334 921.858 802.6L921.847 802.611Z" fill="#699215"/>
<path d="M920.02 743.085H936.77C938.163 743.085 939.307 741.94 939.307 740.547L938.595 710.676C938.595 709.283 937.45 708.139 936.057 708.139L919.534 703.344C918.141 703.344 916.996 704.488 916.996 705.882L917.482 740.547C917.482 741.94 918.627 743.085 920.02 743.085Z" fill="#EEDCBB"/>
<path d="M967.081 907.288L937.534 897.428C935.893 897.115 935.893 897.223 935.126 896.91C928.69 894.318 924.035 891.024 924.035 884.534V827.158C924.035 820.7 929.651 816.855 935.601 814.652C936.411 814.35 945.32 811.121 946.141 810.84L965.871 804.004C970.44 802.427 974.165 803.259 977.124 807.168C978.723 809.274 978.69 813.583 978.69 816.445L978.917 898.303C978.917 903.422 977.254 906.338 973.614 907.472C971.476 908.141 969.187 907.99 967.059 907.277L967.081 907.288Z" fill="#ABB768"/>
<path d="M945.87 850.182L933.699 845.862C932.619 845.862 931.734 844.912 931.734 843.745L931.496 823.194C931.496 822.028 932.382 821.078 933.462 821.078L946.248 817.082C947.328 817.082 948.213 818.032 948.213 819.199L947.835 848.054C947.835 849.221 946.95 850.171 945.87 850.171V850.182Z" fill="#EEDCBB"/>
<path d="M921.843 1090.63L953.561 1080.32C955.321 1080 955.321 1080.11 956.153 1079.78C963.064 1077.07 968.064 1073.64 968.064 1066.87V1006.95C968.064 1000.21 962.027 996.199 955.645 993.898C954.77 993.585 945.213 990.216 944.328 989.914L923.139 982.775C918.237 981.123 914.23 981.998 911.055 986.08C909.338 988.272 909.37 992.786 909.37 995.767L909.133 1081.24C909.133 1086.59 910.925 1089.63 914.824 1090.81C917.113 1091.5 919.576 1091.35 921.854 1090.62L921.843 1090.63Z" fill="#699215"/>
<path d="M920.02 1031.1H936.77C938.163 1031.1 939.307 1029.96 939.307 1028.56L938.595 998.694C938.595 997.301 937.45 996.156 936.057 996.156L919.534 991.361C918.141 991.361 916.996 992.506 916.996 993.899L917.482 1028.56C917.482 1029.96 918.627 1031.1 920.02 1031.1Z" fill="#EEDCBB"/>
<path d="M842.998 795.774L871.799 789.316L880.579 787.621C886.886 786.778 891.789 781.433 891.789 775.018V746.432C891.789 739.683 890.482 732.89 883.992 732.415C883.495 732.383 883.009 732.339 882.523 732.242L840.924 724.121C839.326 723.808 837.652 723.808 836.108 724.294C831.172 725.849 828.753 730.989 828.753 736.821L828.473 783.409C828.473 789.565 832.987 794.737 838.916 795.893C840.265 796.152 841.669 796.077 843.008 795.785L842.998 795.774Z" fill="#3E5D50"/>
<path d="M844.66 784.597L857.003 782.977C859.984 782.977 862.424 780.537 862.424 777.556V764.025C862.424 761.044 859.984 758.604 857.003 758.604H844.66C841.679 758.604 839.238 761.044 839.238 764.025V779.187C839.238 782.167 841.679 784.608 844.66 784.608V784.597Z" fill="#ECCCAD"/>
<path d="M876.015 726.379L846.468 716.519C844.826 716.206 844.826 716.314 844.06 716.001C837.623 713.409 832.969 710.115 832.969 703.625V646.249C832.969 639.791 838.584 635.946 844.535 633.743C845.345 633.441 854.254 630.212 855.075 629.931L874.805 623.095C879.373 621.518 883.099 622.35 886.058 626.259C887.656 628.365 887.624 632.674 887.624 635.536L887.851 717.394C887.851 722.513 886.187 725.429 882.548 726.563C880.41 727.232 878.12 727.081 875.993 726.368L876.015 726.379Z" fill="#ABB768"/>
<path d="M854.803 669.273L842.633 664.953C841.553 664.953 840.667 664.003 840.667 662.836L840.43 642.285C840.43 641.119 841.315 640.169 842.395 640.169L855.181 636.173C856.261 636.173 857.147 637.123 857.147 638.289L856.769 667.145C856.769 668.311 855.883 669.262 854.803 669.262V669.273Z" fill="#EEDCBB"/>
<path d="M864.26 909.717L832.542 899.415C830.782 899.091 830.782 899.199 829.951 898.875C823.039 896.164 818.039 892.73 818.039 885.959V826.045C818.039 819.295 824.076 815.289 830.458 812.988C831.333 812.675 840.89 809.306 841.776 809.003L862.964 801.865C867.867 800.213 871.873 801.088 875.048 805.17C876.765 807.362 876.733 811.876 876.733 814.857L876.971 900.333C876.971 905.678 875.178 908.724 871.279 909.901C868.99 910.592 866.528 910.441 864.249 909.706L864.26 909.717Z" fill="#699215"/>
<path d="M866.096 850.192H849.346C847.953 850.192 846.809 849.048 846.809 847.655L847.521 817.784C847.521 816.391 848.666 815.246 850.059 815.246L866.582 810.451C867.975 810.451 869.12 811.596 869.12 812.989L868.634 847.655C868.634 849.048 867.489 850.192 866.096 850.192Z" fill="#EEDCBB"/>
<path d="M835.234 1009.68L864.781 999.816C866.423 999.503 866.423 999.611 867.189 999.298C873.626 996.706 878.28 993.412 878.28 986.922V929.545C878.28 923.087 872.665 919.243 866.714 917.04C865.904 916.738 856.995 913.509 856.174 913.228L836.444 906.392C831.876 904.815 828.15 905.647 825.191 909.556C823.593 911.662 823.625 915.971 823.625 918.833L823.398 1000.69C823.398 1005.81 825.061 1008.73 828.701 1009.86C830.839 1010.53 833.129 1010.38 835.256 1009.67L835.234 1009.68Z" fill="#ABB768"/>
<path d="M856.445 952.569L868.616 948.25C869.696 948.25 870.581 947.299 870.581 946.133L870.819 925.582C870.819 924.416 869.933 923.465 868.853 923.465L856.067 919.47C854.987 919.47 854.102 920.42 854.102 921.586L854.48 950.442C854.48 951.608 855.365 952.559 856.445 952.559V952.569Z" fill="#EEDCBB"/>
<path d="M869.889 1083.55L841.087 1077.1L832.307 1075.4C826.001 1074.56 821.098 1069.21 821.098 1062.8V1034.21C821.098 1027.46 822.404 1020.67 828.895 1020.19C829.391 1020.16 829.877 1020.12 830.363 1020.02L871.962 1011.9C873.56 1011.59 875.234 1011.59 876.779 1012.07C881.714 1013.63 884.133 1018.77 884.133 1024.6L884.414 1071.19C884.414 1077.34 879.9 1082.52 873.971 1083.67C872.621 1083.93 871.217 1083.86 869.878 1083.56L869.889 1083.55Z" fill="#3E5D50"/>
<path d="M868.226 1072.37L855.882 1070.75C852.902 1070.75 850.461 1068.31 850.461 1065.32V1051.79C850.461 1048.81 852.902 1046.37 855.882 1046.37H868.226C871.206 1046.37 873.647 1048.81 873.647 1051.79V1066.96C873.647 1069.94 871.206 1072.38 868.226 1072.38V1072.37Z" fill="#ECCCAD"/>
<path d="M747.611 692.707L776.413 686.249L785.192 684.553C791.499 683.711 796.402 678.365 796.402 671.951V643.365C796.402 636.615 795.095 629.823 788.605 629.348C788.108 629.315 787.622 629.272 787.136 629.175L745.537 621.054C743.939 620.741 742.265 620.741 740.721 621.227C735.786 622.782 733.367 627.922 733.367 633.754L733.086 680.342C733.086 686.497 737.6 691.67 743.529 692.826C744.879 693.085 746.283 693.009 747.622 692.718L747.611 692.707Z" fill="#3E5D50"/>
<path d="M749.273 681.518L761.616 679.898C764.597 679.898 767.038 677.458 767.038 674.477V660.946C767.038 657.965 764.597 655.524 761.616 655.524H749.273C746.292 655.524 743.852 657.965 743.852 660.946V676.108C743.852 679.088 746.292 681.529 749.273 681.529V681.518Z" fill="#ECCCAD"/>
<path d="M747.611 980.474L776.413 974.016L785.192 972.321C791.499 971.479 796.402 966.133 796.402 959.718V931.133C796.402 924.383 795.095 917.59 788.605 917.115C788.108 917.083 787.622 917.04 787.136 916.942L745.537 908.821C743.939 908.508 742.265 908.508 740.721 908.994C735.786 910.549 733.367 915.69 733.367 921.521L733.086 968.109C733.086 974.265 737.6 979.438 743.529 980.593C744.879 980.852 746.283 980.777 747.622 980.485L747.611 980.474Z" fill="#3E5D50"/>
<path d="M749.273 969.297L761.616 967.678C764.597 967.678 767.038 965.237 767.038 962.256V948.725C767.038 945.744 764.597 943.304 761.616 943.304H749.273C746.292 943.304 743.852 945.744 743.852 948.725V963.887C743.852 966.868 746.292 969.308 749.273 969.308V969.297Z" fill="#ECCCAD"/>
<path d="M735.387 806.402L767.104 796.099C768.864 795.775 768.864 795.883 769.696 795.559C776.607 792.849 781.607 789.415 781.607 782.643V722.729C781.607 715.98 775.571 711.973 769.188 709.673C768.313 709.36 758.756 705.99 757.871 705.688L736.682 698.55C731.78 696.897 727.773 697.772 724.598 701.854C722.881 704.046 722.913 708.561 722.913 711.541L722.676 797.017C722.676 802.363 724.468 805.408 728.367 806.585C730.656 807.276 733.119 807.125 735.397 806.391L735.387 806.402Z" fill="#699215"/>
<path d="M733.551 746.875H750.301C751.694 746.875 752.839 745.73 752.839 744.337L752.126 714.466C752.126 713.073 750.981 711.929 749.588 711.929L733.065 707.134C731.672 707.134 730.527 708.279 730.527 709.672L731.013 744.337C731.013 745.73 732.158 746.875 733.551 746.875Z" fill="#EEDCBB"/>
<path d="M780.624 911.078L751.077 901.218C749.436 900.905 749.436 901.013 748.669 900.7C742.233 898.108 737.578 894.815 737.578 888.324V830.948C737.578 824.49 743.194 820.645 749.144 818.442C749.954 818.14 758.863 814.911 759.684 814.63L779.414 807.794C783.982 806.217 787.708 807.049 790.667 810.958C792.266 813.064 792.233 817.373 792.233 820.235L792.46 902.093C792.46 907.212 790.797 910.128 787.158 911.262C785.019 911.931 782.73 911.78 780.602 911.067L780.624 911.078Z" fill="#ABB768"/>
<path d="M759.413 853.972L747.242 849.652C746.162 849.652 745.277 848.702 745.277 847.535L745.039 826.984C745.039 825.818 745.925 824.868 747.005 824.868L759.791 820.872C760.871 820.872 761.756 821.822 761.756 822.989L761.378 851.844C761.378 853.011 760.493 853.961 759.413 853.961V853.972Z" fill="#EEDCBB"/>
<path d="M735.383 1094.41L767.1 1084.1C768.86 1083.78 768.86 1083.89 769.692 1083.56C776.603 1080.85 781.603 1077.42 781.603 1070.65V1010.73C781.603 1003.98 775.567 999.978 769.184 997.678C768.31 997.365 758.752 993.995 757.867 993.693L736.679 986.555C731.776 984.902 727.769 985.777 724.594 989.859C722.877 992.051 722.909 996.565 722.909 999.546L722.672 1085.02C722.672 1090.37 724.465 1093.41 728.363 1094.59C730.653 1095.28 733.115 1095.13 735.393 1094.4L735.383 1094.41Z" fill="#699215"/>
<path d="M733.547 1034.88H750.297C751.69 1034.88 752.835 1033.74 752.835 1032.34L752.122 1002.47C752.122 1001.08 750.977 999.935 749.584 999.935L733.061 995.141C731.668 995.141 730.523 996.285 730.523 997.678L731.009 1032.34C731.009 1033.74 732.154 1034.88 733.547 1034.88Z" fill="#EEDCBB"/>
<path d="M644.654 893.443L673.455 886.985L682.235 885.29C688.542 884.447 693.445 879.102 693.445 872.687V844.101C693.445 837.352 692.138 830.559 685.648 830.084C685.151 830.051 684.665 830.008 684.179 829.911L642.58 821.79C640.982 821.477 639.308 821.477 637.764 821.963C632.829 823.518 630.41 828.658 630.41 834.49L630.129 881.078C630.129 887.234 634.643 892.406 640.572 893.562C641.922 893.821 643.326 893.745 644.665 893.454L644.654 893.443Z" fill="#3E5D50"/>
<path d="M646.316 882.266L658.659 880.646C661.64 880.646 664.08 878.206 664.08 875.225V861.694C664.08 858.713 661.64 856.272 658.659 856.272H646.316C643.335 856.272 640.895 858.713 640.895 861.694V876.856C640.895 879.836 643.335 882.277 646.316 882.277V882.266Z" fill="#ECCCAD"/>
<path d="M632.426 719.371L664.143 709.068C665.903 708.744 665.903 708.852 666.735 708.528C673.646 705.817 678.646 702.383 678.646 695.612V635.698C678.646 628.948 672.61 624.942 666.227 622.642C665.352 622.328 655.795 618.959 654.91 618.657L633.721 611.518C628.819 609.866 624.812 610.741 621.637 614.823C619.92 617.015 619.952 621.529 619.952 624.51L619.715 709.986C619.715 715.332 621.507 718.377 625.406 719.554C627.695 720.245 630.158 720.094 632.436 719.36L632.426 719.371Z" fill="#699215"/>
<path d="M630.59 659.845H647.34C648.733 659.845 649.878 658.7 649.878 657.307L649.165 627.436C649.165 626.043 648.02 624.898 646.627 624.898L630.104 620.104C628.711 620.104 627.566 621.248 627.566 622.641L628.052 657.307C628.052 658.7 629.197 659.845 630.59 659.845Z" fill="#EEDCBB"/>
<path d="M677.659 824.047L648.112 814.187C646.471 813.874 646.471 813.982 645.704 813.669C639.268 811.077 634.613 807.783 634.613 801.293V743.917C634.613 737.459 640.229 733.614 646.179 731.411C646.989 731.109 655.899 727.88 656.719 727.599L676.45 720.763C681.018 719.186 684.743 720.018 687.702 723.927C689.301 726.033 689.268 730.342 689.268 733.204L689.495 815.062C689.495 820.181 687.832 823.097 684.193 824.231C682.054 824.9 679.765 824.749 677.637 824.036L677.659 824.047Z" fill="#ABB768"/>
<path d="M656.448 766.941L644.277 762.621C643.197 762.621 642.312 761.67 642.312 760.504L642.074 739.953C642.074 738.787 642.96 737.837 644.04 737.837L656.826 733.841C657.906 733.841 658.791 734.791 658.791 735.957L658.413 764.813C658.413 765.979 657.528 766.93 656.448 766.93V766.941Z" fill="#EEDCBB"/>
<path d="M632.426 1007.39L664.143 997.084C665.903 996.76 665.903 996.868 666.735 996.544C673.646 993.833 678.646 990.399 678.646 983.628V923.714C678.646 916.964 672.61 912.957 666.227 910.657C665.352 910.344 655.795 906.975 654.91 906.672L633.721 899.534C628.819 897.882 624.812 898.756 621.637 902.839C619.92 905.031 619.952 909.545 619.952 912.526L619.715 998.002C619.715 1003.35 621.507 1006.39 625.406 1007.57C627.695 1008.26 630.158 1008.11 632.436 1007.38L632.426 1007.39Z" fill="#699215"/>
<path d="M630.59 947.86H647.34C648.733 947.86 649.878 946.716 649.878 945.323L649.165 915.452C649.165 914.059 648.02 912.914 646.627 912.914L630.104 908.119C628.711 908.119 627.566 909.264 627.566 910.657L628.052 945.323C628.052 946.716 629.197 947.86 630.59 947.86Z" fill="#EEDCBB"/>
<path d="M677.37 1107.34L647.823 1097.48C646.182 1097.17 646.182 1097.28 645.415 1096.97C638.979 1094.37 634.324 1091.08 634.324 1084.59V1027.21C634.324 1020.76 639.94 1016.91 645.89 1014.71C646.7 1014.41 655.61 1011.18 656.43 1010.9L676.161 1004.06C680.729 1002.48 684.454 1003.31 687.413 1007.22C689.012 1009.33 688.979 1013.64 688.979 1016.5L689.206 1098.36C689.206 1103.48 687.543 1106.39 683.904 1107.53C681.765 1108.2 679.476 1108.05 677.348 1107.33L677.37 1107.34Z" fill="#ABB768"/>
<path d="M656.159 1050.24L643.988 1045.92C642.908 1045.92 642.023 1044.97 642.023 1043.8L641.785 1023.25C641.785 1022.08 642.671 1021.13 643.751 1021.13L656.537 1017.14C657.617 1017.14 658.502 1018.09 658.502 1019.25L658.124 1048.11C658.124 1049.28 657.239 1050.23 656.159 1050.23V1050.24Z" fill="#EEDCBB"/>
<path d="M537.326 667.058L566.127 660.6L574.907 658.905C581.214 658.063 586.117 652.717 586.117 646.302V617.717C586.117 610.967 584.81 604.174 578.32 603.699C577.823 603.667 577.337 603.624 576.851 603.526L535.252 595.405C533.654 595.092 531.98 595.092 530.436 595.578C525.501 597.133 523.082 602.274 523.082 608.105L522.801 654.693C522.801 660.849 527.315 666.022 533.244 667.177C534.594 667.436 535.997 667.361 537.337 667.069L537.326 667.058Z" fill="#3E5D50"/>
<path d="M538.988 655.87L551.331 654.25C554.312 654.25 556.752 651.809 556.752 648.829V635.297C556.752 632.317 554.312 629.876 551.331 629.876H538.988C536.007 629.876 533.566 632.317 533.566 635.297V650.459C533.566 653.44 536.007 655.881 538.988 655.881V655.87Z" fill="#ECCCAD"/>
<path d="M525.101 780.991L556.819 770.688C558.579 770.364 558.579 770.472 559.411 770.148C566.322 767.438 571.322 764.003 571.322 757.232V697.318C571.322 690.568 565.285 686.562 558.903 684.262C558.028 683.949 548.471 680.579 547.585 680.277L526.397 673.139C521.494 671.486 517.488 672.361 514.313 676.443C512.596 678.635 512.628 683.149 512.628 686.13L512.391 771.606C512.391 776.952 514.183 779.997 518.082 781.174C520.371 781.865 522.833 781.714 525.112 780.98L525.101 780.991Z" fill="#699215"/>
<path d="M523.266 721.465H540.016C541.409 721.465 542.553 720.32 542.553 718.927L541.841 689.056C541.841 687.663 540.696 686.519 539.303 686.519L522.78 681.724C521.387 681.724 520.242 682.868 520.242 684.261L520.728 718.927C520.728 720.32 521.873 721.465 523.266 721.465Z" fill="#EEDCBB"/>
<path d="M570.05 880.959L540.503 871.099C538.861 870.786 538.862 870.894 538.095 870.581C531.658 867.989 527.004 864.695 527.004 858.205V800.829C527.004 794.371 532.62 790.526 538.57 788.323C539.38 788.021 548.289 784.792 549.11 784.511L568.84 777.675C573.408 776.098 577.134 776.93 580.093 780.839C581.691 782.945 581.659 787.254 581.659 790.116L581.886 871.974C581.886 877.093 580.223 880.009 576.583 881.143C574.445 881.812 572.156 881.661 570.028 880.948L570.05 880.959Z" fill="#ABB768"/>
<path d="M548.839 823.842L536.668 819.522C535.588 819.522 534.702 818.572 534.702 817.406L534.465 796.855C534.465 795.688 535.35 794.738 536.43 794.738L549.217 790.742C550.297 790.742 551.182 791.693 551.182 792.859L550.804 821.714C550.804 822.881 549.919 823.831 548.839 823.831V823.842Z" fill="#EEDCBB"/>
<path d="M539.248 982.688L568.049 976.23L576.829 974.535C583.136 973.692 588.039 968.347 588.039 961.932V933.346C588.039 926.597 586.732 919.804 580.242 919.329C579.745 919.297 579.259 919.253 578.773 919.156L537.174 911.035C535.576 910.722 533.902 910.722 532.358 911.208C527.422 912.763 525.003 917.904 525.003 923.735L524.723 970.323C524.723 976.479 529.237 981.651 535.166 982.807C536.515 983.066 537.919 982.991 539.258 982.699L539.248 982.688Z" fill="#3E5D50"/>
<path d="M540.909 971.501L553.253 969.881C556.234 969.881 558.674 967.44 558.674 964.46V950.928C558.674 947.947 556.234 945.507 553.253 945.507H540.909C537.929 945.507 535.488 947.947 535.488 950.928V966.09C535.488 969.071 537.929 971.511 540.909 971.511V971.501Z" fill="#ECCCAD"/>
<path d="M527.023 1096.38L558.741 1086.08C560.501 1085.76 560.501 1085.86 561.332 1085.54C568.244 1082.83 573.244 1079.4 573.244 1072.62V1012.71C573.244 1005.96 567.207 1001.95 560.825 999.653C559.95 999.34 550.393 995.971 549.507 995.668L528.319 988.53C523.416 986.878 519.41 987.753 516.235 991.835C514.518 994.027 514.55 998.541 514.55 1001.52L514.312 1087C514.312 1092.34 516.105 1095.39 520.004 1096.57C522.293 1097.26 524.755 1097.11 527.034 1096.37L527.023 1096.38Z" fill="#699215"/>
<path d="M525.2 1036.86H541.949C543.342 1036.86 544.487 1035.71 544.487 1034.32L543.774 1004.45C543.774 1003.06 542.63 1001.91 541.236 1001.91L524.714 997.116C523.321 997.116 522.176 998.261 522.176 999.654L522.662 1034.32C522.662 1035.71 523.806 1036.86 525.2 1036.86Z" fill="#EEDCBB"/>
<path d="M483.329 773.798L495.327 749.392L486.569 775.137L512.314 766.368L487.908 778.377L512.314 790.386L486.569 781.617L495.327 807.362L483.329 782.956L471.32 807.362L480.089 781.617L454.344 790.386L478.739 778.377L454.344 766.368L480.089 775.137L471.32 749.392L483.329 773.798Z" fill="#312E30"/>
<path d="M198.942 665.277L209.277 644.272L201.729 666.433L223.889 658.884L202.884 669.219L223.889 679.554L201.729 672.005L209.277 694.165L198.942 673.16L188.607 694.165L196.156 672.005L173.996 679.554L195.001 669.219L173.996 658.884L196.156 666.433L188.607 644.272L198.942 665.277Z" fill="#312E30"/>
<path d="M598.669 821.271L607.848 802.621L601.153 822.297L620.829 815.602L602.178 824.77L620.829 833.95L601.153 827.254L607.848 846.93L598.669 828.28L589.5 846.93L596.196 827.254L576.52 833.95L595.17 824.77L576.52 815.602L596.196 822.297L589.5 802.621L598.669 821.271Z" fill="#312E30"/>
<path d="M902.242 932.84L911.411 914.189L904.715 933.866L924.391 927.159L905.741 936.339L924.391 945.518L904.715 938.823L911.411 958.499L902.242 939.848L893.063 958.499L899.758 938.823L880.082 945.518L898.732 936.339L880.082 927.159L899.758 933.866L893.063 914.189L902.242 932.84Z" fill="#312E30"/>
<path d="M400.125 936.489L409.304 917.839L402.598 937.515L422.274 930.82L403.624 939.999L422.274 949.168L402.598 942.472L409.304 962.148L400.125 943.498L390.946 962.148L397.641 942.472L377.965 949.168L396.626 939.999L377.965 930.82L397.641 937.515L390.946 917.839L400.125 936.489Z" fill="#312E30"/>
<path d="M400.115 617.857L406.605 604.66L401.864 618.58L415.785 613.84L402.588 620.33L415.785 626.82L401.864 622.079L406.605 635.989L400.115 622.803L393.625 635.989L398.366 622.079L384.445 626.82L397.642 620.33L384.445 613.84L398.366 618.58L393.625 604.66L400.115 617.857Z" fill="#312E30"/>
<path d="M175.67 976.014L180.26 966.684L176.912 976.522L186.75 973.174L177.419 977.764L186.75 982.353L176.912 979.006L180.26 988.844L175.67 979.513L171.08 988.844L174.428 979.006L164.59 982.353L173.92 977.764L164.59 973.174L174.428 976.522L171.08 966.684L175.67 976.014Z" fill="#312E30"/>
<mask id="mask2_1214_573" style="mask-type:alpha" maskUnits="userSpaceOnUse" x="-255" y="570" width="1557" height="434">
<path d="M-254.516 620.744V1003.3H1301.42V615.978C784.422 554.255 262.207 555.815 -254.516 620.744Z" fill="#0E3C6C"/>
</mask>
<g mask="url(#mask2_1214_573)">
</g>
</g>
</g>
</g>
<ellipse opacity="0.6" cx="805.105" cy="741.638" rx="289.984" ry="39.1473" fill="#F7F6F6" fill-opacity="0.32"/>
<path d="M561.512 783.239C561.512 725.982 607.928 679.566 665.185 679.566H939.485C996.742 679.566 1043.16 725.982 1043.16 783.239V783.239H561.512V783.239Z" fill="#ABB768"/>
<ellipse opacity="0.6" cx="796.278" cy="707.148" rx="161.399" ry="38.555" fill="#2C669D"/>
<path d="M685.93 715.391C685.93 663.406 728.072 621.264 780.057 621.264H822.601C874.586 621.264 916.728 663.406 916.728 715.391V715.391H685.93V715.391Z" fill="#2974AB"/>
<path d="M890.593 677.851C890.593 698.573 850.6 715.378 801.244 715.378C751.888 715.378 711.91 698.573 711.91 677.851C711.91 657.129 736.06 621.25 801.244 621.25C866.428 621.25 890.593 657.115 890.593 677.851Z" fill="#4079AE"/>
<ellipse cx="801.329" cy="700.5" rx="115.399" ry="23.3989" fill="#4079AE"/>
<path d="M839.722 630.145C839.466 632.329 820.892 633.269 801.356 633.086C781.82 632.908 762.294 631.776 762.55 629.598C762.806 627.414 786.756 623.458 806.292 623.642C825.828 623.819 839.979 627.967 839.722 630.145Z" fill="#CFE6F2" fill-opacity="0.4"/>
<rect x="685.93" y="702.628" width="230.799" height="21.2718" fill="#5C95C7"/>
<rect x="685.93" y="719.113" width="230.799" height="4.78614" fill="#56806F"/>
<circle cx="1396.87" cy="827.846" r="4.27428" fill="#4A608C"/>
<circle cx="1241.33" cy="825.708" r="2.13714" fill="#4A608C"/>
<circle cx="1295.48" cy="799.113" r="2.13714" fill="#4A608C"/>
<ellipse cx="892.031" cy="956.786" rx="13.7727" ry="14.0101" fill="#082D47"/>
<ellipse cx="671.905" cy="963.198" rx="14.0101" ry="13.7727" fill="#082D47"/>
<path d="M1642.67 0H0.101562V164.32C545.606 234.035 1097.32 233.202 1642.67 161.718V0Z" fill="#EEDCBB"/>
<path d="M1581.31 72.4529C1581.31 72.4529 1126.06 149.643 829.933 149.643C533.802 149.643 29.8984 69.2622 29.8984 69.2622C29.8984 69.2622 533.802 69.2622 829.933 69.2622C1126.06 69.2622 1581.31 72.4529 1581.31 72.4529Z" fill="#EEDCBB"/>
<ellipse cx="251.764" cy="117.417" rx="57.2792" ry="28.0781" fill="black"/>
<ellipse cx="251.762" cy="117.417" rx="49.043" ry="24.3343" fill="white"/>
<ellipse cx="470.99" cy="139.015" rx="57.2792" ry="28.0781" fill="black"/>
<ellipse cx="470.988" cy="139.015" rx="49.043" ry="24.3343" fill="white"/>
<ellipse cx="1223.7" cy="139.016" rx="57.2792" ry="28.0781" fill="black"/>
<ellipse cx="1223.7" cy="139.015" rx="49.043" ry="24.3343" fill="white"/>
<ellipse cx="1435.36" cy="114.177" rx="57.2792" ry="28.0781" fill="black"/>
<ellipse cx="1435.36" cy="114.177" rx="49.043" ry="24.3343" fill="white"/>
<path d="M570.916 875.225C596.126 771.821 688.764 699.055 795.197 699.055V699.055C900.1 699.055 991.814 769.786 1018.47 871.246L1100 1181.58H496.227L570.916 875.225Z" fill="#FDE9D0"/>
<path d="M588.114 955.61C613.887 862.188 698.87 797.475 795.783 797.475V797.475C891.115 797.475 975.111 860.132 1002.28 951.512L1071.04 1182.81H525.434L588.114 955.61Z" fill="#EEDCBB"/>
<path d="M1155.47 650.605L1522.7 748.02L1547.19 932.859H1155.47V650.605Z" fill="#ABB768"/>
<path d="M1176.82 669.258L1504.71 754.813L1526.57 917.15H1176.82V669.258Z" fill="#ABB768"/>
<path d="M1499.85 759.124L1520.4 911.75H1182.22V676.247L1499.85 759.124Z" stroke="white" stroke-opacity="0.3" stroke-width="10.7992"/>
<path d="M1199.29 688.413C1198.72 685.302 1201.2 682.475 1204.36 682.631L1477.17 696.097C1480.26 696.249 1482.44 699.182 1481.7 702.182L1452.92 818.099C1452.38 820.288 1450.41 821.826 1448.16 821.826H1227.66C1225.29 821.826 1223.25 820.129 1222.83 817.795L1199.29 688.413Z" fill="#324C41"/>
<path d="M1246.01 705.255C1245.61 702.18 1248.12 699.501 1251.21 699.71L1409.56 710.389C1412.48 710.586 1414.58 713.282 1414.06 716.164L1397.22 808.868C1396.79 811.203 1394.76 812.9 1392.39 812.9H1264.65C1262.19 812.9 1260.11 811.078 1259.78 808.639L1246.01 705.255Z" fill="white"/>
<ellipse cx="1330.13" cy="684.389" rx="20.0797" ry="20.0797" fill="#324C41"/>
<path d="M1267.7 606.564L1282.51 626.404L1323.33 681.712L1319.6 684.206L1267.7 606.564Z" fill="#324C41"/>
<circle cx="1267.7" cy="608.186" r="4.11599" fill="#324C41"/>
<path d="M1410.02 635.341L1389.05 648.502L1331.02 685.353L1333.6 689.025L1410.02 635.341Z" fill="#324C41"/>
<circle cx="1409.62" cy="636.191" r="4.11599" transform="rotate(21.1516 1409.62 636.191)" fill="#324C41"/>
<rect x="1212.52" y="719.386" width="29.259" height="4.58965" rx="1.9635" fill="white"/>
<rect x="1212.52" y="728.564" width="29.259" height="4.58965" rx="1.9635" fill="white"/>
<rect x="1212.52" y="737.744" width="29.259" height="4.58965" rx="1.9635" fill="white"/>
<circle cx="1430.25" cy="755.816" r="9.46616" fill="white"/>
<circle cx="1428.53" cy="754.095" r="4.3028" fill="#324C41"/>
<circle cx="1433.11" cy="728.852" r="9.46616" fill="white"/>
<circle cx="1431.39" cy="727.131" r="4.3028" fill="#324C41"/>
<rect x="1441.36" y="734.975" width="4.01595" height="19.827" transform="rotate(139.227 1441.36 734.975)" fill="#324C41"/>
<rect x="1297.57" y="818.063" width="8.51325" height="32.3504" transform="rotate(23.2243 1297.57 818.063)" fill="#324C41"/>
<rect x="1356.32" y="821.063" width="8.51325" height="32.3504" transform="rotate(-20.6363 1356.32 821.063)" fill="#324C41"/>
<path d="M1412.17 726.557L1408.73 745.776L1285.96 812.899L1272.19 812.899L1412.17 726.557Z" fill="#E6E6E6" fill-opacity="0.4"/>
<path d="M1376.31 707.911L1403.56 710.493L1258.84 797.983L1256.7 782.206L1376.31 707.911Z" fill="#E6E6E6" fill-opacity="0.6"/>
<path d="M432.414 666.707L84.7365 758.87L61.558 933.743H432.414V666.707Z" fill="#ABB768"/>
<path d="M412.039 684.378L101.637 765.359L80.9439 919.016H412.039V684.378Z" fill="#ABB768"/>
<path d="M106.505 769.67L87.1194 913.617H406.639V691.367L106.505 769.67Z" stroke="white" stroke-opacity="0.3" stroke-width="10.7992"/>
<rect x="109.523" y="800.83" width="163.177" height="30.5956" rx="12.9591" transform="rotate(-9.87704 109.523 800.83)" fill="#95BBE5"/>
<path d="M108.427 810.211C107.386 803.13 112.283 796.546 119.364 795.506L372.491 758.316C379.572 757.276 386.156 762.173 387.196 769.254L389.535 785.169L110.765 826.126L108.427 810.211Z" fill="#020101"/>
<g clip-path="url(#clip4_1214_573)">
<path d="M181.541 799.069C182.917 799.202 183.725 798.97 185.087 798.714C186.137 798.376 186.661 797.836 187.515 797.233L181.098 760.381L172.469 759.917L179.826 798.52C180.356 798.818 180.934 798.998 181.541 799.069Z" fill="#F0F0F0"/>
<path d="M189.807 748.449C191.242 756.692 185.863 764.515 177.8 765.918C169.738 767.322 162.013 761.778 160.578 753.538C159.144 745.298 164.527 737.478 172.604 736.072C180.68 734.666 188.372 740.206 189.807 748.449Z" fill="#324C41"/>
<path d="M174.258 736.873C174.258 736.873 163.16 738.149 161.372 748.71C161.372 748.71 160.534 754.964 165.091 760.273C165.091 760.273 159.294 739.262 182.347 739.172C182.347 739.172 179.309 736.426 174.258 736.873Z" fill="white" fill-opacity="0.17"/>
</g>
<path d="M240.223 789.448C241.635 789.789 242.434 789.506 243.795 789.24C244.829 788.815 245.309 788.024 246.119 787.166L235.997 729.035L227.176 727.468L238.425 788.424C238.993 788.941 239.599 789.278 240.223 789.448Z" fill="#F0F0F0"/>
<path d="M244.506 715.999C245.941 724.242 240.562 732.064 232.499 733.468C224.437 734.872 216.712 729.328 215.278 721.088C213.843 712.848 219.226 705.028 227.303 703.622C235.38 702.216 243.071 707.756 244.506 715.999Z" fill="#324C41"/>
<path d="M228.961 704.422C228.961 704.422 217.863 705.699 216.075 716.26C216.075 716.26 215.238 722.514 219.794 727.822C219.794 727.822 213.997 706.811 237.05 706.722C237.05 706.722 234.012 703.976 228.961 704.422Z" fill="white" fill-opacity="0.17"/>
<g clip-path="url(#clip5_1214_573)">
<path d="M302.943 781.03C304.319 781.163 305.127 780.931 306.49 780.675C307.539 780.337 308.063 779.797 308.917 779.194L302.501 742.342L293.871 741.878L301.229 780.481C301.759 780.779 302.336 780.959 302.943 781.03Z" fill="#F0F0F0"/>
<path d="M311.209 730.41C312.645 738.653 307.265 746.475 299.203 747.879C291.14 749.283 283.415 743.739 281.981 735.499C280.546 727.259 285.929 719.439 294.006 718.033C302.083 716.627 309.774 722.167 311.209 730.41Z" fill="#324C41"/>
<path d="M295.66 718.833C295.66 718.833 284.562 720.109 282.774 730.67C282.774 730.67 281.937 736.924 286.493 742.233C286.493 742.233 280.696 721.221 303.749 721.132C303.749 721.132 300.711 718.386 295.66 718.833Z" fill="white" fill-opacity="0.17"/>
</g>
<path d="M108.378 836.905L389.765 798.893L394.865 902.269H98.1797L108.378 836.905Z" fill="white"/>
<rect x="119.969" y="842.932" width="9.2714" height="29.6685" fill="#020101"/>
<rect x="136.656" y="835.515" width="9.2714" height="29.6685" fill="#699215"/>
<rect x="153.344" y="857.766" width="9.2714" height="29.6685" fill="#020101"/>
<rect x="170.031" y="830.879" width="9.2714" height="29.6685" fill="#F6E9AE"/>
<rect x="186.719" y="860.548" width="9.2714" height="29.6685" fill="#699215"/>
<rect x="203.41" y="830.879" width="9.2714" height="29.6685" fill="#D9D9D9"/>
<rect x="221.023" y="865.183" width="9.2714" height="29.6685" fill="#020101"/>
<rect x="226.586" y="824.389" width="9.2714" height="29.6685" fill="#D9D9D9"/>
<rect x="246.988" y="860.548" width="9.2714" height="29.6685" fill="#D9D9D9"/>
<rect x="261.82" y="820.681" width="9.2714" height="29.6685" fill="#020101"/>
<rect x="280.363" y="860.548" width="9.2714" height="29.6685" fill="#F6E9AE"/>
<rect x="293.344" y="813.264" width="9.2714" height="29.6685" fill="#699215"/>
<rect x="302.613" y="865.183" width="9.2714" height="29.6685" fill="#D9D9D9"/>
<rect x="316.52" y="828.098" width="9.2714" height="29.6685" fill="#020101"/>
<rect x="334.137" y="809.555" width="9.2714" height="29.6685" fill="#D9D9D9"/>
<rect x="338.773" y="865.183" width="9.2714" height="29.6685" fill="#699215"/>
<rect x="361.949" y="809.555" width="9.2714" height="29.6685" fill="#F6E9AE"/>
<rect x="371.223" y="857.766" width="9.2714" height="29.6685" fill="#020101"/>
<defs>
<clipPath id="clip0_1214_573">
<rect width="602.198" height="502.465" fill="white" transform="translate(427.082 40.4282)"/>
</clipPath>
<clipPath id="clip1_1214_573">
<rect width="966.317" height="1328.87" fill="white" transform="translate(918.281 508.202)"/>
</clipPath>
<clipPath id="clip2_1214_573">
<rect width="966.317" height="1328.87" fill="white" transform="translate(1307.05 508.202)"/>
</clipPath>
<clipPath id="clip3_1214_573">
<rect width="966.317" height="1328.87" fill="white" transform="translate(16.543 264.139)"/>
</clipPath>
<clipPath id="clip4_1214_573">
<rect width="29.6685" height="70.4626" fill="white" transform="translate(157.98 738.618) rotate(-9.87704)"/>
</clipPath>
<clipPath id="clip5_1214_573">
<rect width="29.6685" height="70.4626" fill="white" transform="translate(279.383 720.579) rotate(-9.87704)"/>
</clipPath>
</defs>
</svg>
